<svg width="67" height="46" viewBox="0 0 67 46" fill="none" xmlns="http://www.w3.org/2000/svg">
<path d="M25.056 33.472C22.632 36.28 19.332 37.684 15.156 37.684C11.196 37.684 7.92 36.436 5.328 33.94C2.736 31.42 1.44 28.18 1.44 24.22C1.44 20.212 2.748 16.984 5.364 14.536C8.004 12.064 11.304 10.828 15.264 10.828C17.112 10.828 18.9 11.164 20.628 11.836C22.38 12.484 23.772 13.396 24.804 14.572L20.628 18.748C20.076 17.98 19.332 17.404 18.396 17.02C17.484 16.612 16.512 16.408 15.48 16.408C13.344 16.408 11.58 17.152 10.188 18.64C8.82 20.104 8.136 21.964 8.136 24.22C8.136 26.524 8.808 28.408 10.152 29.872C11.496 31.312 13.236 32.032 15.372 32.032C17.748 32.032 19.548 31.168 20.772 29.44L25.056 33.472Z" fill="url(#paint0_linear_1990_12051)"/>
<path d="M53.4704 37H45.4424L35.9744 25.264H35.9024V37H29.8544V11.512H35.9024V21.88H36.0104L45.1184 11.512H52.8224L41.8424 23.248L53.4704 37Z" fill="#F5F5F5"/>
<path d="M66.064 10.568L62.992 11.528L64.936 14.096L62.776 15.608L60.832 12.992L58.936 15.512L56.824 14L58.768 11.504L55.672 10.472L56.512 8.072L59.56 9.128V6.008H62.2V9.128L65.248 8.168L66.064 10.568Z" fill="url(#paint1_linear_1990_12051)"/>
<defs>
<linearGradient id="paint0_linear_1990_12051" x1="31" y1="2.9362" x2="31" y2="46" gradientUnits="userSpaceOnUse">
<stop stop-color="#7A5CF1"/>
<stop offset="1" stop-color="#4419EF"/>
</linearGradient>
<linearGradient id="paint1_linear_1990_12051" x1="59" y1="-0.0163205" x2="59" y2="11" gradientUnits="userSpaceOnUse">
<stop stop-color="#7A5CF1"/>
<stop offset="1" stop-color="#4419EF"/>
</linearGradient>
</defs>
</svg>
