<svg width="78" height="20" viewBox="0 0 78 20" fill="none" xmlns="http://www.w3.org/2000/svg">
<path d="M16.704 16.648C15.088 18.52 12.888 19.456 10.104 19.456C7.464 19.456 5.28 18.624 3.552 16.96C1.824 15.28 0.96 13.12 0.96 10.48C0.96 7.808 1.832 5.656 3.576 4.024C5.336 2.376 7.536 1.552 10.176 1.552C11.408 1.552 12.6 1.776 13.752 2.224C14.92 2.656 15.848 3.264 16.536 4.048L13.752 6.832C13.384 6.32 12.888 5.936 12.264 5.68C11.656 5.408 11.008 5.272 10.32 5.272C8.896 5.272 7.72 5.768 6.792 6.76C5.88 7.736 5.424 8.976 5.424 10.48C5.424 12.016 5.872 13.272 6.768 14.248C7.664 15.208 8.824 15.688 10.248 15.688C11.832 15.688 13.032 15.112 13.848 13.96L16.704 16.648ZM26.3211 14.2V13.792H25.8171C23.3691 13.792 22.1451 14.336 22.1451 15.424C22.1451 15.84 22.3131 16.152 22.6491 16.36C22.9851 16.552 23.3851 16.648 23.8491 16.648C24.6331 16.648 25.2411 16.432 25.6731 16C26.1051 15.552 26.3211 14.952 26.3211 14.2ZM21.0891 10.816L19.0971 8.68C20.5211 7.336 22.2971 6.664 24.4251 6.664C26.3931 6.664 27.8011 7.168 28.6491 8.176C29.4971 9.168 29.9211 10.768 29.9211 12.976V19H26.3211V17.728H26.2491C25.9611 18.208 25.5051 18.592 24.8811 18.88C24.2571 19.152 23.5851 19.288 22.8651 19.288C22.1611 19.288 21.4971 19.184 20.8731 18.976C20.2651 18.752 19.7211 18.344 19.2411 17.752C18.7611 17.16 18.5211 16.424 18.5211 15.544C18.5211 12.856 21.0811 11.512 26.2011 11.512V11.32C26.2011 10.76 26.0011 10.336 25.6011 10.048C25.2011 9.744 24.6811 9.592 24.0411 9.592C22.9531 9.592 21.9691 10 21.0891 10.816ZM38.3308 19H34.3468V0.855999H38.3308V19ZM58.8473 19H53.4953L47.1833 11.176H47.1352V19H43.1032V2.008H47.1352V8.92H47.2073L53.2792 2.008H58.4153L51.0953 9.832L58.8473 19ZM65.6618 3.232C65.6618 3.84 65.4378 4.352 64.9898 4.768C64.5578 5.184 64.0298 5.392 63.4058 5.392C62.7818 5.392 62.2458 5.184 61.7978 4.768C61.3658 4.336 61.1498 3.824 61.1498 3.232C61.1498 2.656 61.3658 2.152 61.7978 1.72C62.2458 1.288 62.7818 1.072 63.4058 1.072C64.0298 1.072 64.5578 1.288 64.9898 1.72C65.4378 2.136 65.6618 2.64 65.6618 3.232ZM65.3738 19H61.4378V7.048H65.3738V19ZM77.0113 10H74.2033V14.56C74.2033 15.136 74.3153 15.56 74.5393 15.832C74.7633 16.104 75.1473 16.24 75.6913 16.24C76.1553 16.24 76.5393 16.176 76.8433 16.048L76.8913 18.928C76.2353 19.168 75.4753 19.288 74.6113 19.288C73.0913 19.288 72.0033 18.92 71.3473 18.184C70.6913 17.448 70.3633 16.4 70.3633 15.04V10H68.4433V7.048H70.3393V3.904H74.2033V7.048H77.0113V10Z" fill="white"/>
</svg>
