<svg width="87" height="19" viewBox="0 0 87 19" fill="none" xmlns="http://www.w3.org/2000/svg">
<path d="M16.704 15.648C15.088 17.52 12.888 18.456 10.104 18.456C7.464 18.456 5.28 17.624 3.552 15.96C1.824 14.28 0.96 12.12 0.96 9.48C0.96 6.808 1.832 4.656 3.576 3.024C5.336 1.376 7.536 0.551999 10.176 0.551999C11.408 0.551999 12.6 0.775999 13.752 1.224C14.92 1.656 15.848 2.264 16.536 3.048L13.752 5.832C13.384 5.32 12.888 4.936 12.264 4.68C11.656 4.408 11.008 4.272 10.32 4.272C8.896 4.272 7.72 4.768 6.792 5.76C5.88 6.736 5.424 7.976 5.424 9.48C5.424 11.016 5.872 12.272 6.768 13.248C7.664 14.208 8.824 14.688 10.248 14.688C11.832 14.688 13.032 14.112 13.848 12.96L16.704 15.648ZM35.9829 18H31.4229L30.1029 14.664H23.5269L22.2789 18H17.8149L24.9429 1.008H28.9269L35.9829 18ZM28.9749 11.376L26.8629 5.544L24.7029 11.376H28.9749ZM49.5313 18H38.8273V1.008H42.9553V14.424H49.5313V18ZM68.6441 18H63.2921L56.9801 10.176H56.9321V18H52.9001V1.008H56.9321V7.92H57.0041L63.0761 1.008H68.2121L60.8921 8.832L68.6441 18ZM75.4586 2.232C75.4586 2.84 75.2346 3.352 74.7866 3.768C74.3546 4.184 73.8266 4.392 73.2026 4.392C72.5786 4.392 72.0426 4.184 71.5946 3.768C71.1626 3.336 70.9466 2.824 70.9466 2.232C70.9466 1.656 71.1626 1.152 71.5946 0.719999C72.0426 0.287999 72.5786 0.0719991 73.2026 0.0719991C73.8266 0.0719991 74.3546 0.287999 74.7866 0.719999C75.2346 1.136 75.4586 1.64 75.4586 2.232ZM75.1706 18H71.2346V6.048H75.1706V18ZM86.8082 9H84.0002V13.56C84.0002 14.136 84.1122 14.56 84.3362 14.832C84.5602 15.104 84.9442 15.24 85.4882 15.24C85.9522 15.24 86.3362 15.176 86.6402 15.048L86.6882 17.928C86.0322 18.168 85.2722 18.288 84.4082 18.288C82.8882 18.288 81.8002 17.92 81.1442 17.184C80.4882 16.448 80.1602 15.4 80.1602 14.04V9H78.2402V6.048H80.1362V2.904H84.0002V6.048H86.8082V9Z" fill="white"/>
</svg>
