<svg width="91" height="90" viewBox="0 0 91 90" fill="none" xmlns="http://www.w3.org/2000/svg">
<g filter="url(#filter0_b_434_2307)">
<path d="M0.5 56C0.5 51.0294 4.52944 47 9.5 47H54.5C59.4706 47 63.5 51.0294 63.5 56V81C63.5 85.9706 59.4706 90 54.5 90H9.5C4.52944 90 0.5 85.9706 0.5 81V56Z" fill="url(#paint0_linear_434_2307)"/>
</g>
<g opacity="0.13" filter="url(#filter1_f_434_2307)">
<path d="M63.5 73L29.102 70.5662L19.7725 65.2309L29.0792 65.3552L63.5002 65.9999L63.5 73Z" fill="url(#paint1_linear_434_2307)"/>
</g>
<g filter="url(#filter2_b_434_2307)">
<path d="M68 23C72.9706 23 77 27.0294 77 32L77 57C77 61.9706 72.9706 66 68 66L23 66C18.0294 66 14 61.9706 14 57L14 32C14 27.0294 18.0294 23 23 23L68 23Z" fill="#623EF1"/>
</g>
<g opacity="0.13" filter="url(#filter3_f_434_2307)">
<path d="M77.0013 49.9997L42.4829 48.05L33.3028 42.7233L42.465 42.8394L77.0011 42.9998L77.0013 49.9997Z" fill="url(#paint2_linear_434_2307)"/>
</g>
<g filter="url(#filter4_b_434_2307)">
<path d="M36.5 43C31.5294 43 27.5 38.9706 27.5 34L27.5 9C27.5 4.02944 31.5294 3.63856e-06 36.5 3.42129e-06L81.5 1.45428e-06C86.4706 1.23701e-06 90.5 4.02944 90.5 9L90.5 34C90.5 38.9706 86.4706 43 81.5 43L36.5 43Z" fill="url(#paint3_radial_434_2307)"/>
<path d="M36.5 42.5C31.8056 42.5 28 38.6944 28 34L28 9C28 4.30558 31.8056 0.500004 36.5 0.500003L81.5 0.500001C86.1944 0.500001 90 4.30558 90 9L90 34C90 38.6944 86.1944 42.5 81.5 42.5L36.5 42.5Z" stroke="url(#paint4_radial_434_2307)"/>
</g>
<path opacity="0.1" d="M0.5 81H63.5C63.5 85.9706 59.4706 90 54.5 90H9.5C4.52944 90 0.5 85.9706 0.5 81Z" fill="url(#paint5_linear_434_2307)"/>
<defs>
<filter id="filter0_b_434_2307" x="-16.5" y="30" width="97" height="77" filterUnits="userSpaceOnUse" color-interpolation-filters="sRGB">
<feFlood flood-opacity="0" result="BackgroundImageFix"/>
<feGaussianBlur in="BackgroundImage" stdDeviation="8.5"/>
<feComposite in2="SourceAlpha" operator="in" result="effect1_backgroundBlur_434_2307"/>
<feBlend mode="normal" in="SourceGraphic" in2="effect1_backgroundBlur_434_2307" result="shape"/>
</filter>
<filter id="filter1_f_434_2307" x="15.7734" y="61.231" width="51.7266" height="15.769" filterUnits="userSpaceOnUse" color-interpolation-filters="sRGB">
<feFlood flood-opacity="0" result="BackgroundImageFix"/>
<feBlend mode="normal" in="SourceGraphic" in2="BackgroundImageFix" result="shape"/>
<feGaussianBlur stdDeviation="2" result="effect1_foregroundBlur_434_2307"/>
</filter>
<filter id="filter2_b_434_2307" x="-3" y="6" width="97" height="77" filterUnits="userSpaceOnUse" color-interpolation-filters="sRGB">
<feFlood flood-opacity="0" result="BackgroundImageFix"/>
<feGaussianBlur in="BackgroundImage" stdDeviation="8.5"/>
<feComposite in2="SourceAlpha" operator="in" result="effect1_backgroundBlur_434_2307"/>
<feBlend mode="normal" in="SourceGraphic" in2="effect1_backgroundBlur_434_2307" result="shape"/>
</filter>
<filter id="filter3_f_434_2307" x="29.3047" y="38.7231" width="51.6953" height="15.2764" filterUnits="userSpaceOnUse" color-interpolation-filters="sRGB">
<feFlood flood-opacity="0" result="BackgroundImageFix"/>
<feBlend mode="normal" in="SourceGraphic" in2="BackgroundImageFix" result="shape"/>
<feGaussianBlur stdDeviation="2" result="effect1_foregroundBlur_434_2307"/>
</filter>
<filter id="filter4_b_434_2307" x="13.9086" y="-13.5914" width="90.1828" height="70.1828" filterUnits="userSpaceOnUse" color-interpolation-filters="sRGB">
<feFlood flood-opacity="0" result="BackgroundImageFix"/>
<feGaussianBlur in="BackgroundImage" stdDeviation="6.7957"/>
<feComposite in2="SourceAlpha" operator="in" result="effect1_backgroundBlur_434_2307"/>
<feBlend mode="normal" in="SourceGraphic" in2="effect1_backgroundBlur_434_2307" result="shape"/>
</filter>
<linearGradient id="paint0_linear_434_2307" x1="32" y1="47" x2="32" y2="90" gradientUnits="userSpaceOnUse">
<stop stop-color="#4C22F0"/>
<stop offset="1" stop-color="#461BF0"/>
</linearGradient>
<linearGradient id="paint1_linear_434_2307" x1="41.744" y1="66.0789" x2="41.3896" y2="72.2821" gradientUnits="userSpaceOnUse">
<stop/>
<stop offset="1" stop-opacity="0"/>
</linearGradient>
<linearGradient id="paint2_linear_434_2307" x1="54.9326" y1="43.5518" x2="54.5782" y2="49.755" gradientUnits="userSpaceOnUse">
<stop/>
<stop offset="1" stop-opacity="0"/>
</linearGradient>
<radialGradient id="paint3_radial_434_2307" cx="0" cy="0" r="1" gradientUnits="userSpaceOnUse" gradientTransform="translate(-52 -28.5) rotate(20.0613) scale(134.455 116.159)">
<stop stop-color="white" stop-opacity="0.24"/>
<stop offset="1" stop-color="#C0C5F3" stop-opacity="0.53"/>
</radialGradient>
<radialGradient id="paint4_radial_434_2307" cx="0" cy="0" r="1" gradientUnits="userSpaceOnUse" gradientTransform="translate(30.8254 35.5788) rotate(-17.1447) scale(39.9375 45.3437)">
<stop stop-color="white"/>
<stop offset="1" stop-color="white" stop-opacity="0.01"/>
</radialGradient>
<linearGradient id="paint5_linear_434_2307" x1="42.5" y1="90" x2="42.5" y2="81" gradientUnits="userSpaceOnUse">
<stop/>
<stop offset="1" stop-opacity="0"/>
</linearGradient>
</defs>
</svg>
