<svg width="321" height="249" viewBox="0 0 321 249" fill="none" xmlns="http://www.w3.org/2000/svg">
<g clip-path="url(#clip0_1927_12011)">
<rect width="320" height="248" transform="translate(0.611328 0.208008)" fill="white"/>
<g clip-path="url(#clip1_1927_12011)">
<rect width="1440" height="810" transform="translate(0.611328 0.208008)" fill="#4B1EFF"/>
</g>
<g clip-path="url(#clip2_1927_12011)">
<rect width="919" height="517" transform="translate(-299.389 0.208008)" fill="#111111"/>
<g opacity="0.2" clip-path="url(#clip3_1927_12011)">
<path d="M270.555 69.1655L-13.6719 233.209L-13.4054 233.671L270.822 69.6273L270.555 69.1655Z" fill="white"/>
<path d="M288.569 28.0155L288.311 28.4629L553.487 181.59L553.745 181.143L288.569 28.0155Z" fill="white"/>
<path d="M45.7109 234.642L45.5609 234.559L-14.5645 199.838L-14.5645 130.23L-14.4144 130.147L45.7109 95.4258L45.8608 95.5091L105.986 130.23V199.838L105.836 199.921L45.7109 234.642ZM-13.9646 199.496L45.7109 233.959L105.386 199.496V130.58L45.7109 96.1174L-13.9646 130.58L-13.9646 199.496Z" fill="white"/>
<path d="M-14.2639 234.859L-14.6638 234.626L-75.0391 199.763V129.58L-74.6392 129.347L-14.2639 94.4844L46.5112 129.58V199.763L46.1114 199.997L-14.2639 234.859ZM-73.4395 198.838L-14.2639 233.009L44.9117 198.838V130.497L-14.2639 96.3258L-73.4395 130.497V198.838Z" fill="white"/>
<path d="M165.654 130.372L165.504 130.288L105.379 95.5676V25.9594L105.529 25.876L165.654 -8.84473L225.929 25.9594V95.5676L225.78 95.6509L165.654 130.372ZM105.979 95.226L165.654 129.688L225.33 95.226V26.3093L165.654 -8.15314L105.979 26.3093V95.226V95.226Z" fill="white"/>
<path d="M105.678 165.017L105.528 164.934L45.4023 130.213L45.4023 60.6049L45.5523 60.5216L105.678 25.8008L165.953 60.6049V130.213L165.803 130.296L105.678 165.017ZM46.0105 129.863L105.686 164.326L165.361 129.863V60.9465L105.686 26.484L46.0105 60.9465L46.0105 129.863Z" fill="white"/>
<path d="M105.677 372.792L105.527 372.708L45.4102 337.988L45.4102 268.379L45.5601 268.296L105.685 233.575L105.835 233.658L165.961 268.379V337.988L165.811 338.071L105.677 372.792ZM46.01 337.638L105.685 372.1L165.361 337.638V268.721L105.685 234.267L46.01 268.721L46.01 337.638Z" fill="white"/>
<path d="M165.654 303.892L165.504 303.809L105.379 269.088V199.48L105.529 199.397L165.654 164.676L165.804 164.759L225.929 199.48V269.088L225.78 269.171L165.654 303.892ZM105.979 268.746L165.654 303.209L225.33 268.746V199.83L165.654 165.376L105.979 199.83V268.746V268.746Z" fill="white"/>
<path d="M225.629 339.129L225.229 338.896L164.854 304.034V233.851L165.253 233.617L225.629 198.755L226.029 198.988L286.404 233.851V304.034L286.004 304.267L225.629 339.129ZM166.453 303.109L225.629 337.28L284.804 303.109V234.767L225.629 200.596L166.453 234.767V303.109Z" fill="white"/>
<path d="M345.58 234.275L345.43 234.192L285.305 199.471V129.863L285.455 129.779L345.58 95.0586L405.855 129.863V199.471L405.705 199.554L345.58 234.275ZM285.905 199.129L345.58 233.583L405.255 199.129V130.213L345.58 95.7502L285.905 130.213V199.129V199.129Z" fill="white"/>
<path d="M285.603 268.921L285.453 268.838L225.328 234.117V164.509L225.478 164.426L285.603 129.705L285.753 129.788L345.879 164.509V234.117L345.729 234.201L285.603 268.921ZM225.928 233.767L285.603 268.222L345.279 233.767V164.851L285.603 130.388L225.928 164.851V233.767Z" fill="white"/>
<path d="M225.629 234.275L225.479 234.192L165.354 199.471V129.863L165.503 129.779L225.629 95.0586L285.904 129.863V199.471L285.754 199.554L225.629 234.275ZM165.953 199.129L225.629 233.583L285.304 199.129V130.213L225.629 95.7502L165.953 130.213V199.129V199.129Z" fill="white"/>
<path d="M270.707 73.8699C273.187 73.8699 275.198 71.8592 275.198 69.3788C275.198 66.8984 273.187 64.8877 270.707 64.8877C268.227 64.8877 266.217 66.8984 266.217 69.3788C266.217 71.8592 268.227 73.8699 270.707 73.8699Z" fill="white"/>
</g>
<g filter="url(#filter0_f_1927_12011)">
<ellipse cx="154.942" cy="119.98" rx="124.065" ry="43.3706" fill="#111111" fill-opacity="0.9"/>
</g>
</g>
</g>
<defs>
<filter id="filter0_f_1927_12011" x="0.276955" y="46.0094" width="309.331" height="147.941" filterUnits="userSpaceOnUse" color-interpolation-filters="sRGB">
<feFlood flood-opacity="0" result="BackgroundImageFix"/>
<feBlend mode="normal" in="SourceGraphic" in2="BackgroundImageFix" result="shape"/>
<feGaussianBlur stdDeviation="15.3" result="effect1_foregroundBlur_1927_12011"/>
</filter>
<clipPath id="clip0_1927_12011">
<rect width="320" height="248" fill="white" transform="translate(0.611328 0.208008)"/>
</clipPath>
<clipPath id="clip1_1927_12011">
<rect width="1440" height="810" fill="white" transform="translate(0.611328 0.208008)"/>
</clipPath>
<clipPath id="clip2_1927_12011">
<rect width="919" height="517" fill="white" transform="translate(-299.389 0.208008)"/>
</clipPath>
<clipPath id="clip3_1927_12011">
<rect width="1745.53" height="936.344" fill="white" transform="translate(-678.477 -112.958)"/>
</clipPath>
</defs>
</svg>
