<svg width="48" height="48" viewBox="0 0 48 48" fill="none" xmlns="http://www.w3.org/2000/svg">
<path d="M32.6828 46.0038C24.7004 46.0038 18.207 39.5105 18.207 31.528C18.207 23.5456 24.7004 17.0522 32.6828 17.0522C40.6652 17.0522 47.1586 23.5456 47.1586 31.528C47.1586 39.5105 40.6652 46.0038 32.6828 46.0038Z" fill="url(#paint0_linear_840_2273)"/>
<g filter="url(#filter0_b_840_2273)">
<path d="M15.3195 46.0038C7.33713 46.0038 0.84375 39.5105 0.84375 31.528C0.84375 23.5456 7.33713 17.0522 15.3195 17.0522C23.302 17.0522 29.7953 23.5456 29.7953 31.528C29.7953 39.5105 23.302 46.0038 15.3195 46.0038Z" fill="#623EF1" fill-opacity="0.8"/>
</g>
<g filter="url(#filter1_b_840_2273)">
<mask id="path-3-inside-1_840_2273" fill="white">
<path d="M24 2C32.2833 2 39 8.71667 39 16.9967C39 25.1067 32.1067 32 23.9967 32C15.7133 32 9 25.2833 9 17C9 8.71667 15.7167 2 24 2Z"/>
</mask>
<path d="M24 2C32.2833 2 39 8.71667 39 16.9967C39 25.1067 32.1067 32 23.9967 32C15.7133 32 9 25.2833 9 17C9 8.71667 15.7167 2 24 2Z" fill="url(#paint1_radial_840_2273)"/>
<path d="M39 16.9967H38H39ZM9 17H8H9ZM24 3C31.7312 3 38 9.2691 38 16.9967H40C40 8.16424 32.8355 1 24 1V3ZM38 16.9967C38 24.5544 31.5544 31 23.9967 31V33C32.659 33 40 25.659 40 16.9967H38ZM23.9967 31C16.2659 31 10 24.7313 10 17H8C8 25.8353 15.1608 33 23.9967 33V31ZM10 17C10 9.26895 16.269 3 24 3V1C15.1644 1 8 8.16438 8 17H10Z" fill="url(#paint2_radial_840_2273)" mask="url(#path-3-inside-1_840_2273)"/>
</g>
<defs>
<filter id="filter0_b_840_2273" x="-8.22292" y="7.98558" width="47.0865" height="47.085" filterUnits="userSpaceOnUse" color-interpolation-filters="sRGB">
<feFlood flood-opacity="0" result="BackgroundImageFix"/>
<feGaussianBlur in="BackgroundImage" stdDeviation="4.53333"/>
<feComposite in2="SourceAlpha" operator="in" result="effect1_backgroundBlur_840_2273"/>
<feBlend mode="normal" in="SourceGraphic" in2="effect1_backgroundBlur_840_2273" result="shape"/>
</filter>
<filter id="filter1_b_840_2273" x="-4.59141" y="-11.5914" width="57.1828" height="57.1828" filterUnits="userSpaceOnUse" color-interpolation-filters="sRGB">
<feFlood flood-opacity="0" result="BackgroundImageFix"/>
<feGaussianBlur in="BackgroundImage" stdDeviation="6.7957"/>
<feComposite in2="SourceAlpha" operator="in" result="effect1_backgroundBlur_840_2273"/>
<feBlend mode="normal" in="SourceGraphic" in2="effect1_backgroundBlur_840_2273" result="shape"/>
</filter>
<linearGradient id="paint0_linear_840_2273" x1="32.6828" y1="17.0522" x2="32.6828" y2="46.0038" gradientUnits="userSpaceOnUse">
<stop stop-color="#4C22F0"/>
<stop offset="1" stop-color="#471DF1"/>
</linearGradient>
<radialGradient id="paint1_radial_840_2273" cx="0" cy="0" r="1" gradientUnits="userSpaceOnUse" gradientTransform="translate(13.48 7.84963) rotate(51.1744) scale(21.0957)">
<stop stop-color="white" stop-opacity="0.799873"/>
<stop offset="1" stop-color="#C0C5F3" stop-opacity="0.53"/>
</radialGradient>
<radialGradient id="paint2_radial_840_2273" cx="0" cy="0" r="1" gradientUnits="userSpaceOnUse" gradientTransform="translate(14.1776 3.58352) rotate(65.678) scale(19.9428 30.1679)">
<stop stop-color="white"/>
<stop offset="1" stop-color="white" stop-opacity="0.01"/>
</radialGradient>
</defs>
</svg>
