<svg width="48" height="48" viewBox="0 0 48 48" fill="none" xmlns="http://www.w3.org/2000/svg">
<path d="M35.5294 46H6.47059C4.00059 46 2 44.031 2 41.6V17.4C2 14.969 4.00059 13 6.47059 13H35.5294C37.9994 13 40 14.969 40 17.4V41.6C40 44.031 37.9994 46 35.5294 46Z" fill="url(#paint0_linear_434_300)"/>
<g filter="url(#filter0_b_434_300)">
<path d="M41.7786 37.3333H12.8898C10.4342 37.3333 8.44531 35.3444 8.44531 32.8889V8.44444C8.44531 5.98889 10.4342 4 12.8898 4H41.7786C44.2342 4 46.2231 5.98889 46.2231 8.44444V32.8889C46.2231 35.3444 44.2342 37.3333 41.7786 37.3333Z" fill="url(#paint1_radial_434_300)"/>
<path d="M41.7786 36.8333H12.8898C10.7103 36.8333 8.94531 35.0683 8.94531 32.8889V8.44444C8.94531 6.26503 10.7103 4.5 12.8898 4.5H41.7786C43.9581 4.5 45.7231 6.26503 45.7231 8.44444V32.8889C45.7231 35.0683 43.9581 36.8333 41.7786 36.8333Z" stroke="url(#paint2_radial_434_300)"/>
</g>
<g filter="url(#filter1_b_434_300)">
<path d="M23.5355 11.4645C25.4882 13.4171 25.4882 16.5829 23.5355 18.5355C21.5829 20.4882 18.4171 20.4882 16.4645 18.5355C14.5118 16.5829 14.5118 13.4171 16.4645 11.4645C18.4171 9.51184 21.5829 9.51184 23.5355 11.4645Z" fill="white" fill-opacity="0.8"/>
</g>
<g filter="url(#filter2_b_434_300)">
<path d="M34.8248 20.4015L40.47 24.8051C40.8045 25.066 41 25.4665 41 25.8907V31.6232C41 32.3836 40.3836 33 39.6232 33H15.9872C14.812 33 14.1771 31.6224 14.9405 30.7288L19.6485 25.2185C20.3044 24.4508 21.4676 24.3372 22.2662 24.9601L24.7073 26.8638C25.5191 27.496 26.7011 27.3677 27.3494 26.578L32.1827 20.6874C32.831 19.8977 34.0149 19.7694 34.8248 20.4015Z" fill="white" fill-opacity="0.8"/>
</g>
<defs>
<filter id="filter0_b_434_300" x="-5.1461" y="-9.59141" width="64.9602" height="60.5163" filterUnits="userSpaceOnUse" color-interpolation-filters="sRGB">
<feFlood flood-opacity="0" result="BackgroundImageFix"/>
<feGaussianBlur in="BackgroundImage" stdDeviation="6.7957"/>
<feComposite in2="SourceAlpha" operator="in" result="effect1_backgroundBlur_434_300"/>
<feBlend mode="normal" in="SourceGraphic" in2="effect1_backgroundBlur_434_300" result="shape"/>
</filter>
<filter id="filter1_b_434_300" x="12.5034" y="7.5034" width="14.9932" height="14.9932" filterUnits="userSpaceOnUse" color-interpolation-filters="sRGB">
<feFlood flood-opacity="0" result="BackgroundImageFix"/>
<feGaussianBlur in="BackgroundImage" stdDeviation="1.2483"/>
<feComposite in2="SourceAlpha" operator="in" result="effect1_backgroundBlur_434_300"/>
<feBlend mode="normal" in="SourceGraphic" in2="effect1_backgroundBlur_434_300" result="shape"/>
</filter>
<filter id="filter2_b_434_300" x="12.1128" y="17.5034" width="31.3838" height="17.9932" filterUnits="userSpaceOnUse" color-interpolation-filters="sRGB">
<feFlood flood-opacity="0" result="BackgroundImageFix"/>
<feGaussianBlur in="BackgroundImage" stdDeviation="1.2483"/>
<feComposite in2="SourceAlpha" operator="in" result="effect1_backgroundBlur_434_300"/>
<feBlend mode="normal" in="SourceGraphic" in2="effect1_backgroundBlur_434_300" result="shape"/>
</filter>
<linearGradient id="paint0_linear_434_300" x1="21" y1="13" x2="21" y2="46" gradientUnits="userSpaceOnUse">
<stop stop-color="#4C22F0"/>
<stop offset="1" stop-color="#471DF1"/>
</linearGradient>
<radialGradient id="paint1_radial_434_300" cx="0" cy="0" r="1" gradientUnits="userSpaceOnUse" gradientTransform="translate(14.0868 10.4996) rotate(47.6334) scale(24.7153 25.1939)">
<stop stop-color="white" stop-opacity="0.799873"/>
<stop offset="1" stop-color="#C0C5F3" stop-opacity="0.53"/>
</radialGradient>
<radialGradient id="paint2_radial_434_300" cx="0" cy="0" r="1" gradientUnits="userSpaceOnUse" gradientTransform="translate(14.9653 5.75946) rotate(62.8765) scale(22.6869 37.1046)">
<stop stop-color="white"/>
<stop offset="1" stop-color="white" stop-opacity="0.01"/>
</radialGradient>
</defs>
</svg>
