<svg width="48" height="48" viewBox="0 0 48 48" fill="none" xmlns="http://www.w3.org/2000/svg">
<path d="M34.8795 5.4458C33.4224 4.50211 31.7234 4 29.9873 4H12.8824C7.42482 4 3 8.42482 3 13.8824V36.1176C3 41.5752 7.42482 46 12.8824 46H35.1176C40.5752 46 45 41.5752 45 36.1176V16.8939" fill="url(#paint0_linear_434_329)"/>
<g filter="url(#filter0_b_434_329)">
<path d="M28.2426 17.7574C30.5858 20.1005 30.5858 23.8995 28.2426 26.2426C25.8995 28.5858 22.1005 28.5858 19.7574 26.2426C17.4142 23.8995 17.4142 20.1005 19.7574 17.7574C22.1005 15.4142 25.8995 15.4142 28.2426 17.7574Z" fill="white" fill-opacity="0.8"/>
</g>
<g filter="url(#filter1_b_434_329)">
<path d="M28.194 30C31.3881 30 34.1389 32.9778 35.5448 37.3359C35.8161 38.1768 35.1587 39 34.2751 39H13.7249C12.8413 39 12.1839 38.1768 12.4552 37.3359C13.8611 32.9778 16.6119 30 19.806 30H28.194Z" fill="white" fill-opacity="0.8"/>
</g>
<g filter="url(#filter2_b_434_329)">
<path d="M38 20C32.4775 20 28 15.5225 28 10C28 4.4775 32.4775 0 38 0C43.525 0 48 4.4775 48 10C48 15.5225 43.525 20 38 20Z" fill="url(#paint1_radial_434_329)"/>
<path d="M38 19.5C32.7536 19.5 28.5 15.2464 28.5 10C28.5 4.75364 32.7536 0.5 38 0.5C43.2488 0.5 47.5 4.75356 47.5 10C47.5 15.2464 43.2488 19.5 38 19.5Z" stroke="url(#paint2_radial_434_329)"/>
</g>
<path d="M41.5573 8.22217L37.1133 12.6662L34.4453 10.0002" stroke="#532CF0" stroke-width="2" stroke-linecap="round" stroke-linejoin="round"/>
<defs>
<filter id="filter0_b_434_329" x="15.5034" y="13.5034" width="16.9932" height="16.9932" filterUnits="userSpaceOnUse" color-interpolation-filters="sRGB">
<feFlood flood-opacity="0" result="BackgroundImageFix"/>
<feGaussianBlur in="BackgroundImage" stdDeviation="1.2483"/>
<feComposite in2="SourceAlpha" operator="in" result="effect1_backgroundBlur_434_329"/>
<feBlend mode="normal" in="SourceGraphic" in2="effect1_backgroundBlur_434_329" result="shape"/>
</filter>
<filter id="filter1_b_434_329" x="9.89793" y="27.5034" width="28.2041" height="13.9932" filterUnits="userSpaceOnUse" color-interpolation-filters="sRGB">
<feFlood flood-opacity="0" result="BackgroundImageFix"/>
<feGaussianBlur in="BackgroundImage" stdDeviation="1.2483"/>
<feComposite in2="SourceAlpha" operator="in" result="effect1_backgroundBlur_434_329"/>
<feBlend mode="normal" in="SourceGraphic" in2="effect1_backgroundBlur_434_329" result="shape"/>
</filter>
<filter id="filter2_b_434_329" x="14.4086" y="-13.5914" width="47.1828" height="47.1828" filterUnits="userSpaceOnUse" color-interpolation-filters="sRGB">
<feFlood flood-opacity="0" result="BackgroundImageFix"/>
<feGaussianBlur in="BackgroundImage" stdDeviation="6.7957"/>
<feComposite in2="SourceAlpha" operator="in" result="effect1_backgroundBlur_434_329"/>
<feBlend mode="normal" in="SourceGraphic" in2="effect1_backgroundBlur_434_329" result="shape"/>
</filter>
<linearGradient id="paint0_linear_434_329" x1="24" y1="4" x2="24" y2="46" gradientUnits="userSpaceOnUse">
<stop stop-color="#7A5CF1"/>
<stop offset="1" stop-color="#4419EF"/>
</linearGradient>
<radialGradient id="paint1_radial_434_329" cx="0" cy="0" r="1" gradientUnits="userSpaceOnUse" gradientTransform="translate(30.9866 3.89975) rotate(51.1744) scale(14.0638)">
<stop stop-color="white" stop-opacity="0.799873"/>
<stop offset="1" stop-color="#C0C5F3" stop-opacity="0.53"/>
</radialGradient>
<radialGradient id="paint2_radial_434_329" cx="0" cy="0" r="1" gradientUnits="userSpaceOnUse" gradientTransform="translate(31.4517 1.05568) rotate(65.678) scale(13.2952 20.112)">
<stop stop-color="white"/>
<stop offset="1" stop-color="white" stop-opacity="0.01"/>
</radialGradient>
</defs>
</svg>
