<svg width="48" height="48" viewBox="0 0 48 48" fill="none" xmlns="http://www.w3.org/2000/svg">
<g clip-path="url(#clip0_434_357)">
<path d="M0 18V41.3018C0 45.0013 3.104 48 6.93333 48H41.0667C44.896 48 48 45.0013 48 41.3018V18" fill="url(#paint0_linear_434_357)"/>
<path opacity="0.5" d="M0 41.5V27L24 28.5L0 41.5Z" fill="url(#paint1_linear_434_357)"/>
<path opacity="0.5" d="M48 41.5V27L24 28.5L48 41.5Z" fill="url(#paint2_linear_434_357)"/>
<g filter="url(#filter0_f_434_357)">
<path d="M35.9227 13H41.72C45.1893 13 48 15.732 48 19.1042C48 21.1286 46.968 23.0208 45.2453 24.1561C41.6747 26.5096 35.2747 30.7269 29.9787 34.2157C26.3653 36.5978 21.632 36.5926 18.0187 34.2131C12.8827 30.8305 6.37067 26.5381 2.74933 24.1535C1.024 23.0156 0 21.1286 0 19.1042C0 15.732 2.81067 13 6.28 13H12.0773" fill="#360E68" fill-opacity="0.17"/>
</g>
<g filter="url(#filter1_b_434_357)">
<path d="M35.9227 12H41.72C45.1893 12 48 14.732 48 18.1042C48 20.1286 46.968 22.0208 45.2453 23.1561C41.6747 25.5096 35.2747 29.7269 29.9787 33.2157C26.3653 35.5978 21.632 35.5926 18.0187 33.2131C12.8827 29.8305 6.37067 25.5381 2.74933 23.1535C1.024 22.0156 0 20.1286 0 18.1042C0 14.732 2.81067 12 6.28 12H12.0773" fill="#623EF1" fill-opacity="0.8"/>
</g>
<g filter="url(#filter2_b_434_357)">
<mask id="path-6-inside-1_434_357" fill="white">
<path d="M24 0C31.1789 0 37 5.82111 37 12.9971C37 20.0258 31.0258 26 23.9971 26C16.8182 26 11 20.1789 11 13C11 5.82111 16.8211 0 24 0Z"/>
</mask>
<path d="M24 0C31.1789 0 37 5.82111 37 12.9971C37 20.0258 31.0258 26 23.9971 26C16.8182 26 11 20.1789 11 13C11 5.82111 16.8211 0 24 0Z" fill="url(#paint3_radial_434_357)"/>
<path d="M37 12.9971H36H37ZM11 13H10H11ZM24 1C30.6267 1 36 6.37354 36 12.9971H38C38 5.26868 31.731 -1 24 -1V1ZM36 12.9971C36 19.4735 30.4735 25 23.9971 25V27C31.5781 27 38 20.5781 38 12.9971H36ZM23.9971 25C17.3708 25 12 19.6269 12 13H10C10 20.7309 16.2656 27 23.9971 27V25ZM12 13C12 6.3734 17.3734 1 24 1V-1C16.2688 -1 10 5.26883 10 13H12Z" fill="url(#paint4_radial_434_357)" mask="url(#path-6-inside-1_434_357)"/>
</g>
<path d="M30 9L22.4983 17L18 12.1993" stroke="#603CED" stroke-width="2" stroke-linecap="round" stroke-linejoin="round"/>
</g>
<defs>
<filter id="filter0_f_434_357" x="-6" y="7" width="60" height="35" filterUnits="userSpaceOnUse" color-interpolation-filters="sRGB">
<feFlood flood-opacity="0" result="BackgroundImageFix"/>
<feBlend mode="normal" in="SourceGraphic" in2="BackgroundImageFix" result="shape"/>
<feGaussianBlur stdDeviation="3" result="effect1_foregroundBlur_434_357"/>
</filter>
<filter id="filter1_b_434_357" x="-9.06667" y="2.93333" width="66.1333" height="41.1333" filterUnits="userSpaceOnUse" color-interpolation-filters="sRGB">
<feFlood flood-opacity="0" result="BackgroundImageFix"/>
<feGaussianBlur in="BackgroundImage" stdDeviation="4.53333"/>
<feComposite in2="SourceAlpha" operator="in" result="effect1_backgroundBlur_434_357"/>
<feBlend mode="normal" in="SourceGraphic" in2="effect1_backgroundBlur_434_357" result="shape"/>
</filter>
<filter id="filter2_b_434_357" x="-2.59141" y="-13.5914" width="53.1828" height="53.1828" filterUnits="userSpaceOnUse" color-interpolation-filters="sRGB">
<feFlood flood-opacity="0" result="BackgroundImageFix"/>
<feGaussianBlur in="BackgroundImage" stdDeviation="6.7957"/>
<feComposite in2="SourceAlpha" operator="in" result="effect1_backgroundBlur_434_357"/>
<feBlend mode="normal" in="SourceGraphic" in2="effect1_backgroundBlur_434_357" result="shape"/>
</filter>
<linearGradient id="paint0_linear_434_357" x1="24" y1="9.5" x2="24" y2="48" gradientUnits="userSpaceOnUse">
<stop stop-color="#7A5CF1"/>
<stop offset="1" stop-color="#4419EF"/>
</linearGradient>
<linearGradient id="paint1_linear_434_357" x1="7.5" y1="18.5" x2="13" y2="34.5" gradientUnits="userSpaceOnUse">
<stop stop-color="#522AF0" stop-opacity="0"/>
<stop offset="1" stop-color="#090322" stop-opacity="0.13"/>
</linearGradient>
<linearGradient id="paint2_linear_434_357" x1="40.5" y1="18.5" x2="35" y2="34.5" gradientUnits="userSpaceOnUse">
<stop stop-color="#522AF0" stop-opacity="0"/>
<stop offset="1" stop-color="#090322" stop-opacity="0.13"/>
</linearGradient>
<radialGradient id="paint3_radial_434_357" cx="0" cy="0" r="1" gradientUnits="userSpaceOnUse" gradientTransform="translate(14.8826 5.06968) rotate(51.1744) scale(18.283)">
<stop stop-color="white" stop-opacity="0.799873"/>
<stop offset="1" stop-color="#C0C5F3" stop-opacity="0.53"/>
</radialGradient>
<radialGradient id="paint4_radial_434_357" cx="0" cy="0" r="1" gradientUnits="userSpaceOnUse" gradientTransform="translate(15.4873 1.37238) rotate(65.678) scale(17.2838 26.1455)">
<stop stop-color="white"/>
<stop offset="1" stop-color="white" stop-opacity="0.01"/>
</radialGradient>
<clipPath id="clip0_434_357">
<rect width="48" height="48" fill="white"/>
</clipPath>
</defs>
</svg>
