<svg width="48" height="51" viewBox="0 0 48 51" fill="none" xmlns="http://www.w3.org/2000/svg">
<g opacity="0.1" filter="url(#filter0_f_434_369)">
<path d="M10.3125 48L10.7961 31.1911L14.1447 26.5537L13.5695 31.0394L13.6263 47.9899L10.3125 48Z" fill="url(#paint0_linear_434_369)"/>
</g>
<path fill-rule="evenodd" clip-rule="evenodd" d="M13.5 27.2002H22.9333V48.0002H4.8C2.14903 48.0002 0 45.8511 0 43.2002V32.0002C0 29.3492 2.14903 27.2002 4.8 27.2002H10.7935C12.3126 27.0593 13.5 25.8366 13.5 24.3491V27.2002Z" fill="url(#paint1_linear_434_369)"/>
<g opacity="0.1" filter="url(#filter1_f_434_369)">
<path d="M26.082 47.731L26.5339 21.4573L29.0685 14.7519L29.3071 21.225L29.3958 47.7209L26.082 47.731Z" fill="url(#paint2_linear_434_369)"/>
</g>
<g filter="url(#filter2_b_434_369)">
<path fill-rule="evenodd" clip-rule="evenodd" d="M28.7987 11.7334C28.7987 13.5007 27.366 14.9334 25.5987 14.9334H18.132C15.4811 14.9334 13.332 17.0824 13.332 19.7334V48.0001H36.2654V14.9334H28.7987V11.7334Z" fill="#623EF1"/>
</g>
<g filter="url(#filter3_b_434_369)">
<path d="M28.8008 6C28.8008 2.68629 31.4871 0 34.8008 0H42.0008C45.3145 0 48.0008 2.68629 48.0008 6V42C48.0008 45.3137 45.3145 48 42.0008 48H28.8008V6Z" fill="url(#paint3_radial_434_369)"/>
<path d="M29.3008 6C29.3008 2.96243 31.7632 0.5 34.8008 0.5H42.0008C45.0384 0.5 47.5008 2.96243 47.5008 6V42C47.5008 45.0376 45.0383 47.5 42.0008 47.5H29.3008V6Z" stroke="url(#paint4_radial_434_369)"/>
</g>
<defs>
<filter id="filter0_f_434_369" x="8.17917" y="24.4204" width="8.0987" height="25.713" filterUnits="userSpaceOnUse" color-interpolation-filters="sRGB">
<feFlood flood-opacity="0" result="BackgroundImageFix"/>
<feBlend mode="normal" in="SourceGraphic" in2="BackgroundImageFix" result="shape"/>
<feGaussianBlur stdDeviation="1.06667" result="effect1_foregroundBlur_434_369"/>
</filter>
<filter id="filter1_f_434_369" x="23.9487" y="12.6186" width="7.57917" height="37.2457" filterUnits="userSpaceOnUse" color-interpolation-filters="sRGB">
<feFlood flood-opacity="0" result="BackgroundImageFix"/>
<feBlend mode="normal" in="SourceGraphic" in2="BackgroundImageFix" result="shape"/>
<feGaussianBlur stdDeviation="1.06667" result="effect1_foregroundBlur_434_369"/>
</filter>
<filter id="filter2_b_434_369" x="-3.66797" y="-5.2666" width="56.9336" height="70.2666" filterUnits="userSpaceOnUse" color-interpolation-filters="sRGB">
<feFlood flood-opacity="0" result="BackgroundImageFix"/>
<feGaussianBlur in="BackgroundImage" stdDeviation="8.5"/>
<feComposite in2="SourceAlpha" operator="in" result="effect1_backgroundBlur_434_369"/>
<feBlend mode="normal" in="SourceGraphic" in2="effect1_backgroundBlur_434_369" result="shape"/>
</filter>
<filter id="filter3_b_434_369" x="15.2094" y="-13.5914" width="46.382" height="75.1828" filterUnits="userSpaceOnUse" color-interpolation-filters="sRGB">
<feFlood flood-opacity="0" result="BackgroundImageFix"/>
<feGaussianBlur in="BackgroundImage" stdDeviation="6.7957"/>
<feComposite in2="SourceAlpha" operator="in" result="effect1_backgroundBlur_434_369"/>
<feBlend mode="normal" in="SourceGraphic" in2="effect1_backgroundBlur_434_369" result="shape"/>
</filter>
<linearGradient id="paint0_linear_434_369" x1="13.5884" y1="36.6896" x2="10.2747" y2="36.7007" gradientUnits="userSpaceOnUse">
<stop/>
<stop offset="1" stop-opacity="0"/>
</linearGradient>
<linearGradient id="paint1_linear_434_369" x1="11.4667" y1="24.3491" x2="11.4667" y2="48.0002" gradientUnits="userSpaceOnUse">
<stop stop-color="#4C22F0"/>
<stop offset="1" stop-color="#471DF1"/>
</linearGradient>
<linearGradient id="paint2_linear_434_369" x1="29.3367" y1="30.057" x2="26.0229" y2="30.0681" gradientUnits="userSpaceOnUse">
<stop/>
<stop offset="1" stop-opacity="0"/>
</linearGradient>
<radialGradient id="paint3_radial_434_369" cx="0" cy="0" r="1" gradientUnits="userSpaceOnUse" gradientTransform="translate(31.668 9.35941) rotate(72.1565) scale(27.6245 16.4966)">
<stop stop-color="white" stop-opacity="0.799873"/>
<stop offset="1" stop-color="#C0C5F3" stop-opacity="0.53"/>
</radialGradient>
<radialGradient id="paint4_radial_434_369" cx="0" cy="0" r="1" gradientUnits="userSpaceOnUse" gradientTransform="translate(32.1145 2.53362) rotate(79.7521) scale(29.5478 20.85)">
<stop stop-color="white"/>
<stop offset="1" stop-color="white" stop-opacity="0.01"/>
</radialGradient>
</defs>
</svg>
