<svg width="601" height="584" viewBox="0 0 601 584" fill="none" xmlns="http://www.w3.org/2000/svg">
<g filter="url(#filter0_b_392_5690)">
<rect x="481" y="202" width="120" height="120" rx="60" fill="url(#paint0_linear_392_5690)" fill-opacity="0.6"/>
<rect x="482" y="203" width="118" height="118" rx="59" stroke="url(#paint1_linear_392_5690)" stroke-opacity="0.6" stroke-width="2"/>
<rect x="482" y="203" width="118" height="118" rx="59" stroke="url(#paint2_linear_392_5690)" stroke-width="2"/>
</g>
<g clip-path="url(#clip0_392_5690)">
<path d="M556.908 248.011L567.494 231.094H542.03L538.512 236.732L556.908 248.011Z" fill="white"/>
<path opacity="0.15" d="M538.516 236.732L540.317 233.838L556.912 248.011L538.516 236.732V236.732Z" fill="black"/>
<path d="M562.506 278.68V253.249L557.012 249.82L545.461 268.044L562.506 278.68V278.68Z" fill="white"/>
<path opacity="0.15" d="M545.461 268.042L548.315 269.822L557.012 249.82L545.461 268.043L545.461 268.042Z" fill="black"/>
<path d="M521.496 226.005V251.436L527.388 254.866L556.905 248.008L521.496 226.005Z" fill="white"/>
<path d="M527.265 256.805L516.68 273.434H542.142L557.019 249.82L527.265 256.805Z" fill="white"/>
<path d="M513.001 294.979H514.482L515.222 285.949H513.706V284.206H517.777L520.561 291.265C520.773 291.881 520.861 292.304 520.861 292.304H520.896C520.896 292.304 520.984 291.881 521.213 291.265L523.98 284.206H528.051V285.949H526.553L527.276 294.979H528.756V296.704H523.627V294.979H525.019L524.561 288.678C524.526 288.237 524.614 287.516 524.614 287.516H524.561C524.561 287.516 524.42 288.202 524.262 288.625L521.865 294.381H519.891L517.494 288.625C517.335 288.202 517.212 287.516 517.212 287.516H517.141C517.141 287.516 517.23 288.236 517.195 288.678L516.737 294.979H518.147V296.704H513V294.979H513.001ZM536.109 283.995C539.81 283.995 542.594 286.794 542.594 290.368C542.594 294.047 539.81 296.916 536.109 296.916C532.407 296.916 529.623 294.047 529.623 290.368C529.623 286.793 532.407 283.995 536.109 283.995ZM536.109 294.891C538.365 294.891 540.216 292.937 540.216 290.367C540.216 287.902 538.365 286.018 536.109 286.018C533.853 286.018 532.002 287.903 532.002 290.367C532.002 292.938 533.853 294.891 536.109 294.891ZM543.742 294.979H545.239V285.949H543.742V284.206H549.153C550.159 284.206 550.951 284.259 551.762 284.505C554.193 285.226 555.815 287.374 555.815 290.454C555.815 293.412 554.317 295.542 551.938 296.334C551.091 296.633 550.211 296.703 549.17 296.703H543.742V294.979ZM549.065 294.856C549.857 294.856 550.492 294.786 551.109 294.538C552.537 293.957 553.436 292.497 553.436 290.455C553.436 288.342 552.484 286.899 551.021 286.336C550.387 286.089 549.805 286.055 549.065 286.055H547.548V294.856H549.065ZM557.142 294.979H558.253L561.407 290.367L558.34 285.949H557.229V284.206H561.954V285.949H560.72L562.447 288.537C562.678 288.817 562.8 289.065 562.8 289.065H562.835C562.835 289.082 562.957 288.835 563.17 288.537L564.844 285.949H563.645V284.206H568.192V285.949H567.099L563.927 290.543L567.046 294.979H568.157V296.704H563.415V294.979H564.649L562.904 292.356C562.676 292.058 562.552 291.811 562.552 291.811H562.517C562.482 291.811 562.376 292.058 562.183 292.356L560.508 294.979H561.724V296.704H557.143L557.142 294.979Z" fill="white"/>
</g>
<g filter="url(#filter1_b_392_5690)">
<rect x="196" y="223" width="108" height="108" rx="54" fill="url(#paint3_linear_392_5690)" fill-opacity="0.6"/>
<rect x="197" y="224" width="106" height="106" rx="53" stroke="url(#paint4_linear_392_5690)" stroke-opacity="0.6" stroke-width="2"/>
<rect x="197" y="224" width="106" height="106" rx="53" stroke="url(#paint5_linear_392_5690)" stroke-width="2"/>
</g>
<path d="M270.947 263.789C270.947 260.76 268.472 258.304 265.42 258.304C262.632 258.304 260.328 260.352 259.948 263.014C259.913 262.995 259.892 262.984 259.892 262.984C255.372 260.961 251.564 264.544 251.564 264.544L241.492 274.587L245.472 278.39L253.579 270.487C257.364 266.731 259.426 269.273 259.426 269.273C262.275 271.662 259.524 274.49 259.524 274.49L263.602 278.39C266.932 274.821 267.125 271.707 266.113 269.229C268.838 268.89 270.947 266.585 270.947 263.789Z" fill="white"/>
<path d="M266.165 289.013C266.183 288.978 266.194 288.957 266.194 288.957C268.233 284.472 264.622 280.694 264.622 280.694L254.5 270.7L250.668 274.649L258.632 282.693C262.418 286.449 259.856 288.494 259.856 288.494C257.448 291.322 254.599 288.592 254.599 288.592L250.668 292.638C254.264 295.942 257.404 296.134 259.901 295.13C260.242 297.834 262.566 299.927 265.383 299.927C268.436 299.927 270.911 297.471 270.911 294.442C270.911 291.676 268.847 289.39 266.165 289.013Z" fill="white"/>
<path d="M254.585 279.657L246.478 287.56C242.692 291.317 240.631 288.774 240.631 288.774C237.781 286.385 240.533 283.558 240.533 283.558L236.455 279.658C233.125 283.226 232.932 286.341 233.944 288.819C231.218 289.157 229.109 291.463 229.109 294.259C229.109 297.288 231.584 299.743 234.637 299.743C237.424 299.743 239.729 297.696 240.108 295.034C240.144 295.053 240.164 295.063 240.164 295.063C244.685 297.087 248.492 293.503 248.492 293.503L258.564 283.46L254.585 279.657Z" fill="white"/>
<path d="M241.427 275.355C237.641 271.599 240.203 269.554 240.203 269.554C242.611 266.726 245.46 269.456 245.46 269.456L249.391 265.41C245.795 262.106 242.656 261.914 240.159 262.919C239.817 260.214 237.494 258.122 234.676 258.122C231.623 258.122 229.149 260.577 229.148 263.606C229.148 266.372 231.212 268.659 233.894 269.035C233.876 269.07 233.865 269.091 233.865 269.091C231.826 273.576 235.437 277.354 235.437 277.354L245.559 287.348L249.391 283.399L241.427 275.355Z" fill="white"/>
<g filter="url(#filter2_b_392_5690)">
<rect x="128" y="353" width="142" height="142" rx="71" fill="url(#paint6_linear_392_5690)" fill-opacity="0.6"/>
<rect x="129" y="354" width="140" height="140" rx="70" stroke="url(#paint7_linear_392_5690)" stroke-opacity="0.6" stroke-width="2"/>
<rect x="129" y="354" width="140" height="140" rx="70" stroke="url(#paint8_linear_392_5690)" stroke-width="2"/>
</g>
<g clip-path="url(#clip1_392_5690)">
<path opacity="0.1" d="M165.803 413.182C165.686 413.182 163.229 412.944 163.229 412.944C163.229 412.944 161.474 411.161 161.24 411.042C161.123 410.923 161.123 410.923 161.006 410.923L159.602 440.168L169.664 437.909C169.664 437.909 166.154 413.657 166.154 413.419C166.154 413.3 165.92 413.182 165.803 413.182Z" fill="black"/>
<path fill-rule="evenodd" clip-rule="evenodd" d="M154.639 408.333C154.501 408.252 154.392 408.189 154.221 408.189C151.179 408.189 149.541 412.231 148.722 414.608L151.296 413.895C151.998 410.566 153.402 409.021 154.806 408.426C154.743 408.394 154.689 408.363 154.639 408.333ZM155.976 412.231C155.976 410.923 155.742 410.091 155.508 409.377C154.455 409.853 153.285 410.923 152.583 413.419L155.976 412.468V412.231ZM157.029 411.993L158.55 411.517C158.199 410.328 157.497 409.259 156.678 409.021C156.912 409.734 157.029 410.566 157.029 411.636V411.993ZM165.921 413.182C166.038 413.182 166.155 413.3 166.155 413.419C166.155 413.657 169.665 437.909 169.665 437.909L159.603 440.168L141 436.601C141 436.601 143.34 417.818 143.457 417.224C143.459 417.208 143.461 417.194 143.463 417.179C143.574 416.387 143.591 416.268 144.51 416.035C144.779 415.944 145.04 415.853 145.296 415.763C146.041 415.504 146.738 415.261 147.435 415.084C148.137 412.349 150.126 407 154.338 407.119C154.923 407.119 155.625 407.356 156.093 408.07H156.21C157.965 408.07 159.018 409.615 159.603 411.279C160.188 411.042 160.539 410.923 160.539 410.923C160.562 410.923 160.595 410.918 160.634 410.912C160.792 410.89 161.054 410.852 161.241 411.042C161.475 411.161 163.23 412.944 163.23 412.944C163.23 412.944 165.687 413.182 165.921 413.182ZM154.922 422.692L156.209 418.888C156.209 418.888 155.39 418.294 153.401 418.412C149.072 418.412 146.849 421.384 146.849 424.475C146.849 426.542 147.99 427.487 148.992 428.317C149.777 428.967 150.476 429.546 150.476 430.538C150.476 431.133 150.125 431.846 149.189 431.846C147.785 431.846 146.147 430.419 146.147 430.419L145.328 433.273C145.328 433.273 146.966 435.294 150.125 435.294C152.816 435.294 154.805 433.273 154.805 430.063C154.805 427.601 153.156 426.374 151.866 425.414C151.039 424.799 150.359 424.294 150.359 423.643C150.359 423.287 150.476 422.098 152.465 422.098C153.869 422.098 154.922 422.692 154.922 422.692Z" fill="white"/>
<path d="M181.481 425.902C180.428 425.308 179.96 424.832 179.96 424.238C179.96 423.406 180.662 422.93 181.832 422.93C183.119 422.93 184.289 423.525 184.289 423.525L185.225 420.671C185.225 420.671 184.406 419.958 181.949 419.958C178.439 419.958 176.099 421.979 176.099 424.832C176.099 426.497 177.269 427.685 178.673 428.518C179.843 429.231 180.311 429.706 180.311 430.42C180.311 431.133 179.726 431.846 178.556 431.846C176.918 431.846 175.28 431.014 175.28 431.014L174.344 433.867C174.344 433.867 175.748 434.818 178.205 434.818C181.715 434.818 184.289 433.035 184.289 429.825C184.289 428.042 183.002 426.734 181.481 425.902ZM195.638 419.839C193.883 419.839 192.479 420.671 191.426 421.979L192.947 413.895H188.969L185.108 434.462H189.086L190.373 427.448C190.841 424.832 192.245 423.168 193.532 423.168C194.468 423.168 194.819 423.762 194.819 424.713C194.819 425.308 194.819 425.902 194.702 426.497L193.181 434.581H197.159L198.68 426.259C198.797 425.427 198.914 424.357 198.914 423.643C198.914 421.266 197.744 419.839 195.638 419.839ZM205.817 431.609C204.413 431.609 203.945 430.42 203.945 428.993C203.945 426.734 205.115 422.93 207.221 422.93C208.625 422.93 209.093 424.119 209.093 425.308C209.093 427.923 207.923 431.609 205.817 431.609ZM207.806 419.839C203.009 419.839 199.85 424.238 199.85 429.112C199.85 432.203 201.722 434.699 205.349 434.699C210.029 434.699 213.188 430.42 213.188 425.427C213.188 422.574 211.55 419.839 207.806 419.839ZM219.506 431.727C218.453 431.727 217.868 431.133 217.868 431.133L218.57 427.329C219.038 424.832 220.325 423.168 221.729 423.168C222.899 423.168 223.367 424.357 223.367 425.427C223.25 428.042 221.729 431.727 219.506 431.727ZM223.367 419.839C220.676 419.839 219.155 422.217 219.155 422.217L219.389 420.077H215.879C215.762 421.504 215.411 423.762 215.06 425.427L212.252 440.168H216.23L217.283 434.224H217.4C217.4 434.224 218.219 434.699 219.74 434.699C224.42 434.699 227.462 429.825 227.462 424.951C227.462 422.336 226.292 419.839 223.367 419.839ZM233.078 414.133C231.791 414.133 230.855 415.203 230.855 416.511C230.855 417.699 231.557 418.532 232.727 418.532C234.014 418.532 235.067 417.699 235.067 416.154C235.067 414.965 234.248 414.133 233.078 414.133ZM227.579 434.462H231.557L234.248 420.196H230.27L227.579 434.462ZM244.31 420.196H241.502L241.619 419.483C241.853 418.056 242.672 416.867 243.959 416.867C244.661 416.867 245.246 417.105 245.246 417.105L246.065 413.895C246.065 413.895 245.363 413.539 243.959 413.539C242.555 413.539 241.151 413.895 240.098 414.846C238.694 416.035 238.109 417.699 237.758 419.364L237.641 420.077H235.769L235.184 423.168H237.056L234.95 434.462H238.928L241.034 423.168H243.725L244.31 420.196ZM253.787 420.196C253.787 420.196 251.33 426.497 250.16 429.944C250.043 428.874 249.224 420.196 249.224 420.196H245.012L247.352 433.273C247.352 433.511 247.352 433.748 247.235 433.986C246.767 434.937 245.948 435.769 245.129 436.364C244.427 436.958 243.491 437.315 242.906 437.553L243.959 441C244.778 440.881 246.416 440.168 247.82 438.86C249.575 437.196 251.33 434.462 252.968 430.895L257.765 420.315L253.787 420.196Z" fill="white"/>
</g>
<g filter="url(#filter3_b_392_5690)">
<rect x="320" y="131" width="142" height="142" rx="71" fill="url(#paint9_linear_392_5690)" fill-opacity="0.6"/>
<rect x="321" y="132" width="140" height="140" rx="70" stroke="url(#paint10_linear_392_5690)" stroke-opacity="0.6" stroke-width="2"/>
<rect x="321" y="132" width="140" height="140" rx="70" stroke="url(#paint11_linear_392_5690)" stroke-width="2"/>
</g>
<g opacity="0.8">
<path d="M387.556 193.225L382.984 193.225L382.992 201.778C382.992 204.278 381.919 206.3 379.423 206.3C376.926 206.3 375.841 204.283 375.841 201.778L375.841 193.232L371.277 193.232L371.277 201.778C371.277 206.717 374.454 210.721 379.393 210.721C384.332 210.721 387.556 206.717 387.556 201.778L387.556 193.225ZM428.777 188.012L433.327 188.012L433.327 210.279L428.777 210.279L428.777 188.012ZM436.685 188.833L436.685 188.034L440.231 188.034L440.231 188.833L438.934 188.833L438.934 192.359L437.982 192.359L437.982 188.833L436.685 188.833ZM442.065 188.034L443.078 191.009L443.089 191.009L444.047 188.034L445.386 188.034L445.386 192.359L444.495 192.359L444.495 189.294L444.483 189.294L443.423 192.359L442.695 192.359L441.635 189.323L441.623 189.323L441.623 192.359L440.732 192.359L440.732 188.034L442.065 188.034ZM367.559 193.038C363.638 192.134 361.164 196.029 361.062 196.238C361.011 196.341 361.009 196.393 360.835 196.393C360.693 196.393 360.68 196.238 360.68 196.238L360.194 193.259L356.113 193.259L356.113 210.265L360.682 210.265L360.682 201.06C360.682 200.307 362.708 196.701 366.633 197.629C368.618 198.094 369.459 198.94 369.459 198.94L369.459 193.76C368.863 193.431 368.223 193.189 367.559 193.038ZM393.755 215.867L393.755 207.456C393.755 207.456 393.763 207.273 393.927 207.271C394.092 207.27 394.107 207.368 394.143 207.456C394.49 208.319 396.395 211.602 400.622 210.572C402.233 210.117 403.685 209.221 404.815 207.985C405.945 206.749 406.708 205.223 407.018 203.577C407.328 201.932 407.172 200.233 406.57 198.671C405.967 197.109 404.94 195.746 403.605 194.735C402.27 193.724 400.68 193.106 399.013 192.95C397.345 192.794 395.668 193.106 394.168 193.851C392.669 194.596 391.407 195.744 390.524 197.167C389.642 198.59 389.174 200.231 389.173 201.905L389.173 215.871L393.755 215.867ZM398.182 197.348C399.084 197.347 399.966 197.615 400.716 198.115C401.466 198.616 402.05 199.328 402.396 200.161C402.741 200.995 402.831 201.911 402.655 202.796C402.479 203.681 402.045 204.493 401.408 205.131C400.77 205.768 399.957 206.203 399.073 206.379C398.188 206.554 397.271 206.464 396.438 206.119C395.605 205.773 394.893 205.189 394.392 204.439C393.891 203.689 393.624 202.807 393.625 201.905C393.625 200.697 394.105 199.537 394.959 198.683C395.814 197.828 396.973 197.348 398.182 197.348Z" fill="white"/>
<path d="M422.352 210.27L426.931 210.27L426.931 201.902C426.93 200.228 426.462 198.587 425.579 197.164C424.697 195.741 423.435 194.593 421.935 193.848C420.436 193.103 418.758 192.791 417.091 192.947C415.424 193.103 413.833 193.722 412.498 194.732C411.163 195.743 410.137 197.106 409.534 198.668C408.931 200.23 408.776 201.929 409.086 203.575C409.396 205.22 410.159 206.746 411.289 207.982C412.419 209.218 413.871 210.114 415.482 210.569C419.709 211.6 421.613 208.316 421.961 207.453C421.996 207.365 422.029 207.267 422.176 207.269C422.324 207.27 422.349 207.453 422.349 207.453L422.352 210.27ZM422.481 201.902C422.481 202.804 422.213 203.685 421.712 204.435C421.212 205.184 420.5 205.768 419.667 206.113C418.834 206.458 417.918 206.548 417.034 206.372C416.15 206.197 415.338 205.763 414.7 205.125C414.063 204.488 413.629 203.676 413.453 202.792C413.277 201.908 413.367 200.991 413.712 200.158C414.057 199.326 414.641 198.614 415.391 198.113C416.14 197.612 417.022 197.345 417.923 197.345C419.132 197.345 420.291 197.826 421.145 198.68C422 199.535 422.48 200.694 422.481 201.902ZM341.805 210.234L336.609 210.234L336.609 188L342.183 188C348.935 188 354.056 189.241 354.056 199.117C354.056 208.901 348.633 210.234 341.805 210.234ZM343.046 191.855L341.209 191.855L341.209 206.376L343.094 206.424C346.963 206.424 349.457 206.074 349.457 199.117C349.455 192.447 347.261 191.855 343.045 191.855L343.046 191.855Z" fill="white"/>
</g>
<g filter="url(#filter4_b_392_5690)">
<rect x="478" y="349" width="99" height="99" rx="49.5" fill="url(#paint12_linear_392_5690)" fill-opacity="0.6"/>
<rect x="479" y="350" width="97" height="97" rx="48.5" stroke="url(#paint13_linear_392_5690)" stroke-opacity="0.6" stroke-width="2"/>
<rect x="479" y="350" width="97" height="97" rx="48.5" stroke="url(#paint14_linear_392_5690)" stroke-width="2"/>
</g>
<g clip-path="url(#clip2_392_5690)">
<path d="M535.088 385.473C534.04 384.414 532.342 384.414 531.295 385.473L514.228 402.72C512.132 404.836 508.737 404.836 506.643 402.72C504.546 400.603 504.546 397.171 506.643 395.053L523.381 378.139C521.287 376.022 517.89 376.022 515.796 378.139L502.849 391.222C498.66 395.456 498.66 402.319 502.849 406.553C507.039 410.787 513.83 410.787 518.02 406.553L535.088 389.305C536.134 388.247 536.134 386.531 535.088 385.473ZM540.777 379.724C536.587 375.489 529.795 375.489 525.605 379.724L508.539 396.97C507.492 398.028 507.492 399.745 508.539 400.803C509.586 401.862 511.283 401.862 512.331 400.803L529.399 383.557C531.494 381.44 534.889 381.44 536.983 383.557C538.032 384.615 539.73 384.615 540.777 383.557C541.824 382.497 541.824 380.782 540.777 379.724H540.777ZM546.466 396.97C545.419 395.913 543.72 395.913 542.673 396.97L525.605 414.218C523.511 416.334 520.114 416.334 518.02 414.218C516.973 413.16 515.275 413.16 514.228 414.218C513.179 415.276 513.179 416.993 514.228 418.05C518.416 422.284 525.209 422.284 529.399 418.05L546.466 400.803C547.513 399.746 547.513 398.028 546.466 396.97ZM552.156 391.222C547.966 386.989 541.174 386.989 536.985 391.222L519.916 408.47C518.869 409.527 518.869 411.244 519.916 412.302C520.964 413.361 522.663 413.361 523.709 412.302L540.777 395.055C542.871 392.938 546.268 392.938 548.362 395.055C550.457 397.172 550.457 400.603 548.362 402.72L531.623 419.636C533.718 421.752 537.113 421.752 539.209 419.636L552.156 406.553C556.345 402.318 556.345 395.455 552.156 391.222Z" fill="white"/>
</g>
<g filter="url(#filter5_b_392_5690)">
<rect x="137" y="30" width="170" height="170" rx="85" fill="url(#paint15_linear_392_5690)" fill-opacity="0.6"/>
<rect x="138" y="31" width="168" height="168" rx="84" stroke="url(#paint16_linear_392_5690)" stroke-opacity="0.6" stroke-width="2"/>
<rect x="138" y="31" width="168" height="168" rx="84" stroke="url(#paint17_linear_392_5690)" stroke-width="2"/>
</g>
<path fill-rule="evenodd" clip-rule="evenodd" d="M257 115C257 134.33 241.33 150 222 150C202.67 150 187 134.33 187 115C187 95.67 202.67 80 222 80C241.33 80 257 95.67 257 115ZM230.227 120.334V99.4233H235.339V120.145C235.339 127.513 229.396 133.485 222.066 133.485L222 133.485C214.633 133.501 208.66 127.542 208.66 120.175V99.4233H213.783V120.264C213.783 124.632 217.322 128.292 221.688 128.44C221.688 128.44 222.024 128.452 222.066 128.452C222.092 128.452 222.392 128.441 222.392 128.441C226.719 128.293 230.227 124.663 230.227 120.334Z" fill="white"/>
<g filter="url(#filter6_b_392_5690)">
<rect y="183" width="170" height="170" rx="85" fill="url(#paint18_linear_392_5690)" fill-opacity="0.6"/>
<rect x="1" y="184" width="168" height="168" rx="84" stroke="url(#paint19_linear_392_5690)" stroke-opacity="0.6" stroke-width="2"/>
<rect x="1" y="184" width="168" height="168" rx="84" stroke="url(#paint20_linear_392_5690)" stroke-width="2"/>
</g>
<path fill-rule="evenodd" clip-rule="evenodd" d="M75.7088 267.361H75.5366V267.36V243H70.1172V282.545H75.5366V268.988H75.7088L88.0496 282.545H95.4566L81.6039 268.041L94.0491 256.001H87.1828L75.7088 267.361ZM103.582 249.785C101.621 249.785 100.008 248.272 100.008 246.424C100.008 244.52 101.623 243.008 103.582 243.008C105.543 243.008 107.216 244.465 107.216 246.424C107.216 248.329 105.543 249.785 103.582 249.785ZM122.85 260.319H130.116L130.117 260.314V256.003H122.851V248.385H117.49V256.003H112.243V260.314H117.49V274.706C117.49 280.199 120.315 283 125.446 283C127.117 283 128.79 282.719 130.059 282.272L129.886 277.959C128.962 278.407 127.693 278.632 126.714 278.632C124.003 278.632 122.85 277.344 122.85 274.152V260.319ZM100.875 282.546H106.294V256.001H100.875V282.546Z" fill="white"/>
<path d="M56.4869 282.278C56.3652 280.943 56.245 279.056 56.245 277.944H56.1233C54.6676 280.722 50.9103 283 46.7287 283C39.3343 283 36 278.166 36 272.277V255.941H41.6982V270.497C41.6982 274.831 42.9714 278.609 48.2437 278.609C52.7904 278.609 55.9423 275.166 55.9423 269.943V255.941H61.639V276.61C61.639 277.999 61.6998 280.554 61.8824 282.276H56.4869" fill="white"/>
<g filter="url(#filter7_b_392_5690)">
<rect x="304" y="298" width="142" height="142" rx="71" fill="url(#paint21_linear_392_5690)" fill-opacity="0.6"/>
<rect x="305" y="299" width="140" height="140" rx="70" stroke="url(#paint22_linear_392_5690)" stroke-opacity="0.6" stroke-width="2"/>
<rect x="305" y="299" width="140" height="140" rx="70" stroke="url(#paint23_linear_392_5690)" stroke-width="2"/>
</g>
<path d="M351.59 357.08C351.59 366.276 356.922 374.222 364.655 377.988L353.597 347.625C352.311 350.515 351.59 353.712 351.59 357.08Z" fill="white"/>
<path d="M390.421 355.908C390.421 353.036 389.392 351.048 388.51 349.5C387.335 347.587 386.233 345.966 386.233 344.053C386.233 341.917 387.849 339.929 390.126 339.929C390.229 339.929 390.326 339.942 390.426 339.948C386.302 336.161 380.807 333.849 374.772 333.849C366.673 333.849 359.547 338.013 355.402 344.32C355.946 344.337 356.459 344.348 356.894 344.348C359.319 344.348 363.072 344.053 363.072 344.053C364.322 343.98 364.469 345.819 363.221 345.967C363.221 345.967 361.965 346.115 360.568 346.189L369.01 371.352L374.083 356.105L370.471 346.188C369.223 346.114 368.04 345.966 368.04 345.966C366.791 345.893 366.937 343.979 368.187 344.053C368.187 344.053 372.015 344.347 374.293 344.347C376.717 344.347 380.471 344.053 380.471 344.053C381.722 343.979 381.869 345.818 380.62 345.966C380.62 345.966 379.361 346.114 377.967 346.188L386.344 371.161L388.657 363.418C389.659 360.204 390.421 357.896 390.421 355.908Z" fill="white"/>
<path d="M375.178 359.112L368.223 379.367C370.299 379.979 372.496 380.313 374.771 380.313C377.471 380.313 380.06 379.845 382.47 378.996C382.408 378.897 382.351 378.791 382.305 378.676L375.178 359.112Z" fill="white"/>
<path d="M395.113 345.934C395.213 346.674 395.27 347.468 395.27 348.322C395.27 350.68 394.83 353.33 393.507 356.644L386.426 377.161C393.318 373.133 397.953 365.65 397.953 357.08C397.954 353.041 396.924 349.243 395.113 345.934Z" fill="white"/>
<path d="M374.773 330C359.873 330 347.75 342.148 347.75 357.08C347.75 372.014 359.873 384.162 374.773 384.162C389.673 384.162 401.798 372.014 401.798 357.08C401.798 342.148 389.673 330 374.773 330ZM374.773 382.92C360.556 382.92 348.989 371.328 348.989 357.08C348.989 342.833 360.556 331.242 374.773 331.242C388.99 331.242 400.556 342.833 400.556 357.08C400.556 371.328 388.99 382.92 374.773 382.92Z" fill="white"/>
<path d="M370.618 395.385H366.083V395.867C367.502 395.867 367.73 396.171 367.73 397.974V401.223C367.73 403.026 367.502 403.356 366.083 403.356C364.994 403.204 364.26 402.62 363.246 401.503L362.081 400.233C363.652 399.954 364.487 398.964 364.487 397.847C364.487 396.451 363.297 395.385 361.068 395.385H356.609V395.867C358.028 395.867 358.256 396.171 358.256 397.974V401.223C358.256 403.026 358.028 403.356 356.609 403.356V403.838H361.65V403.356C360.232 403.356 360.004 403.026 360.004 401.223V400.31H360.434L363.246 403.838H370.618C374.24 403.838 375.811 401.909 375.811 399.599C375.811 397.289 374.24 395.385 370.618 395.385ZM360.004 399.522V396.146H361.042C362.182 396.146 362.689 396.933 362.689 397.847C362.689 398.736 362.182 399.522 361.042 399.522H360.004V399.522ZM370.694 403.051H370.516C369.605 403.051 369.478 402.823 369.478 401.655V396.146C369.478 396.146 370.593 396.146 370.694 396.146C373.328 396.146 373.809 398.075 373.809 399.573C373.809 401.122 373.328 403.051 370.694 403.051Z" fill="white"/>
<path d="M342.5 400.462L344.248 395.283C344.755 393.786 344.527 393.354 342.906 393.354V392.846H347.668V393.354C346.072 393.354 345.693 393.735 345.059 395.588L342.171 404.27H341.842L339.258 396.324L336.624 404.27H336.294L333.483 395.588C332.875 393.735 332.469 393.354 331 393.354V392.846H336.624V393.354C335.129 393.354 334.723 393.71 335.256 395.283L336.953 400.462L339.511 392.846H339.993L342.5 400.462Z" fill="white"/>
<path d="M351.113 404.168C348.327 404.168 346.047 402.112 346.047 399.599C346.047 397.111 348.327 395.055 351.113 395.055C353.9 395.055 356.179 397.111 356.179 399.599C356.179 402.112 353.9 404.168 351.113 404.168ZM351.113 395.842C348.783 395.842 347.972 397.949 347.972 399.599C347.972 401.275 348.783 403.356 351.113 403.356C353.469 403.356 354.28 401.275 354.28 399.599C354.28 397.949 353.469 395.842 351.113 395.842Z" fill="white"/>
<path d="M382.067 403.331V403.838H376.266V403.331C377.963 403.331 378.267 402.899 378.267 400.36V396.299C378.267 393.76 377.963 393.354 376.266 393.354V392.846H381.509C384.118 392.846 385.563 394.192 385.563 395.994C385.563 397.746 384.118 399.117 381.509 399.117H380.065V400.36C380.065 402.899 380.369 403.331 382.067 403.331ZM381.509 393.76H380.065V398.177H381.509C382.928 398.177 383.586 397.187 383.586 395.994C383.586 394.776 382.928 393.76 381.509 393.76Z" fill="white"/>
<path d="M402.964 401.452L402.838 401.909C402.61 402.747 402.331 403.051 400.532 403.051H400.177C398.86 403.051 398.632 402.747 398.632 400.944V399.777C400.608 399.777 400.76 399.954 400.76 401.274H401.242V397.492H400.76C400.76 398.812 400.608 398.989 398.632 398.989V396.146H400.025C401.824 396.146 402.103 396.451 402.331 397.289L402.458 397.771H402.863L402.686 395.385H395.238V395.867C396.656 395.867 396.885 396.171 396.885 397.974V401.223C396.885 402.872 396.691 403.288 395.572 403.347C394.509 403.184 393.78 402.603 392.781 401.503L391.616 400.233C393.186 399.954 394.022 398.964 394.022 397.847C394.022 396.451 392.832 395.385 390.603 395.385H386.145V395.867C387.563 395.867 387.791 396.171 387.791 397.974V401.223C387.791 403.026 387.563 403.356 386.145 403.356V403.838H391.186V403.356C389.767 403.356 389.539 403.026 389.539 401.223V400.31H389.97L392.781 403.838H403.192L403.345 401.452H402.964V401.452ZM389.539 399.522V396.146H390.577C391.717 396.146 392.224 396.933 392.224 397.847C392.224 398.736 391.717 399.522 390.577 399.522H389.539V399.522Z" fill="white"/>
<path d="M408.108 404.169C407.095 404.169 406.208 403.636 405.828 403.305C405.701 403.433 405.473 403.813 405.423 404.169H404.941V400.666H405.448C405.651 402.341 406.816 403.331 408.311 403.331C409.121 403.331 409.78 402.874 409.78 402.113C409.78 401.453 409.197 400.945 408.159 400.463L406.715 399.777C405.701 399.295 404.941 398.457 404.941 397.34C404.941 396.122 406.081 395.081 407.652 395.081C408.488 395.081 409.197 395.386 409.628 395.741C409.754 395.639 409.881 395.36 409.957 395.055H410.439V398.051H409.907C409.729 396.858 409.071 395.868 407.728 395.868C407.019 395.868 406.36 396.274 406.36 396.909C406.36 397.569 406.892 397.924 408.108 398.483L409.501 399.168C410.717 399.752 411.198 400.691 411.198 401.453C411.198 403.052 409.805 404.169 408.108 404.169Z" fill="white"/>
<path d="M415.909 404.169C414.895 404.169 414.009 403.636 413.629 403.305C413.502 403.433 413.274 403.813 413.224 404.169H412.742V400.666H413.249C413.452 402.341 414.617 403.331 416.112 403.331C416.922 403.331 417.581 402.874 417.581 402.113C417.581 401.453 416.998 400.945 415.959 400.463L414.515 399.777C413.502 399.295 412.742 398.457 412.742 397.34C412.742 396.122 413.882 395.081 415.453 395.081C416.289 395.081 416.998 395.386 417.429 395.741C417.555 395.639 417.682 395.36 417.758 395.055H418.239V398.051H417.707C417.53 396.858 416.871 395.868 415.529 395.868C414.82 395.868 414.161 396.274 414.161 396.909C414.161 397.569 414.693 397.924 415.909 398.483L417.302 399.168C418.518 399.752 418.999 400.691 418.999 401.453C418.999 403.052 417.606 404.169 415.909 404.169Z" fill="white"/>
<g filter="url(#filter8_b_392_5690)">
<rect x="427" y="34" width="115" height="115" rx="57.5" fill="url(#paint24_linear_392_5690)" fill-opacity="0.6"/>
<rect x="428" y="35" width="113" height="113" rx="56.5" stroke="url(#paint25_linear_392_5690)" stroke-opacity="0.6" stroke-width="2"/>
<rect x="428" y="35" width="113" height="113" rx="56.5" stroke="url(#paint26_linear_392_5690)" stroke-width="2"/>
</g>
<path d="M468.772 89.1349C468.772 87.5701 467.276 85.9289 464.676 85.9289C461.76 85.9289 458.558 88.0835 458.068 92.3839C457.567 96.7264 460.248 98.6561 462.951 98.6561C465.653 98.6561 467.069 97.5949 468.516 96.1797C467.271 94.6051 465.664 95.3327 465.356 95.4931C464.846 95.7782 464.269 95.9192 463.686 95.901C462.643 95.901 461.578 95.4295 461.578 93.4676C468.261 92.8025 468.771 90.69 468.771 89.1349H468.772ZM465.46 89.3921C465.418 89.8743 465.227 90.6998 461.843 91.1624C462.554 88.6097 463.919 88.418 464.545 88.418C464.672 88.4122 464.799 88.4339 464.917 88.4816C465.035 88.5293 465.141 88.6019 465.229 88.6945C465.316 88.7871 465.383 88.8975 465.424 89.0182C465.465 89.1389 465.48 89.2671 465.467 89.3941L465.46 89.3921ZM454.143 89.8107L452.589 94.7322L451.493 86.1871C449.047 86.1871 447.731 87.9456 447.045 89.8L445.15 94.743L444.884 89.8528C444.74 87.5798 442.672 86.1969 441 86.1969L443.021 98.5593C445.585 98.5495 446.969 96.8007 447.693 94.9464L449.295 90.7438C449.31 90.9149 450.402 98.5602 450.402 98.5602C452.977 98.5602 454.361 96.9201 455.103 95.1293L458.709 86.1979C456.17 86.1979 454.832 87.9456 454.141 89.8107H454.143ZM478.222 85.8986C476.637 85.8986 475.425 86.7671 474.402 88.0424V88.0327L475.316 80.6025C473.209 80.6025 471.495 82.4471 471.166 85.1915L469.581 98.4634C470.795 98.4634 472.082 98.1094 472.774 97.2086C473.392 98.0125 474.317 98.6561 475.69 98.6561C479.244 98.6561 481.681 94.4965 481.681 90.5932C481.66 87.0331 479.946 85.9084 478.233 85.9084L478.222 85.8986ZM477.891 92.2783C477.521 94.4544 476.316 95.9342 475.157 95.9342C473.998 95.9342 473.487 95.409 473.487 95.409C473.711 93.5018 473.849 92.3321 474.274 91.3238C474.699 90.3154 475.711 88.7075 476.764 88.7075C477.797 88.7075 478.265 90.0905 477.892 92.2773L477.891 92.2783ZM490.544 86.1881H488.064L488.074 86.059C488.245 84.4296 488.628 83.5719 489.891 83.432C490.753 83.3459 491.136 82.896 491.232 82.4031L491.541 80.6769C486.57 80.6446 484.997 82.809 484.596 86.1128L484.587 86.1881H484.533C483.724 86.1881 482.831 87.1104 482.681 88.2791L482.628 88.7075H484.288L482.895 100.307L482.468 102.387C482.521 102.387 482.585 102.397 482.637 102.397C484.967 102.311 486.458 100.457 486.787 97.7651L487.875 88.7056H488.655C489.421 88.7056 490.316 87.9329 490.472 86.6468L490.544 86.1881ZM503.44 85.9729C500.578 85.9729 497.875 88.0953 497.046 91.4304C496.218 94.7655 497.473 98.7099 501.686 98.7099C505.898 98.7099 508.31 94.6021 508.31 91.1829C508.314 87.7842 506.028 85.9719 503.441 85.9719L503.44 85.9729ZM504.6 92.1698C504.452 93.6818 503.791 95.9763 501.982 95.9763C500.173 95.9763 500.418 93.2964 500.593 92.0201C500.785 90.6587 501.541 88.7183 503.168 88.7183C504.632 88.7183 504.77 90.466 504.601 92.1707L504.6 92.1698ZM522.455 89.8L520.902 94.7214C520.86 94.3351 519.806 86.1764 519.806 86.1764C517.36 86.1764 516.05 87.9349 515.364 89.7892L513.469 94.7322C513.459 94.3782 513.203 89.842 513.203 89.842C513.049 87.5691 510.983 86.1861 509.304 86.1861L511.315 98.5485C513.878 98.5387 515.262 96.79 515.987 94.9356L517.583 90.733C517.593 90.9042 518.69 98.5495 518.69 98.5495C521.265 98.5495 522.643 96.9093 523.391 95.1185L527 86.1871C524.468 86.1871 523.127 87.9349 522.446 89.8H522.455ZM492.885 80.6749L490.799 97.6243L490.372 99.7153C490.425 99.7153 490.489 99.7251 490.542 99.7251C492.785 99.6928 494.382 97.7103 494.681 95.2114L495.883 85.4868C496.247 82.5166 494.492 80.673 492.885 80.673V80.6749Z" fill="white"/>
<g filter="url(#filter9_b_392_5690)">
<rect x="405" y="457" width="127" height="127" rx="63.5" fill="url(#paint27_linear_392_5690)" fill-opacity="0.6"/>
<rect x="406" y="458" width="125" height="125" rx="62.5" stroke="url(#paint28_linear_392_5690)" stroke-opacity="0.6" stroke-width="2"/>
<rect x="406" y="458" width="125" height="125" rx="62.5" stroke="url(#paint29_linear_392_5690)" stroke-width="2"/>
</g>
<g clip-path="url(#clip3_392_5690)">
<path d="M486.797 524.837H495.999V522.798H489.934C490.771 519.451 495.895 518.719 495.895 515.007C495.895 513.02 494.535 511.556 491.659 511.556C489.882 511.556 488.313 512.079 487.267 512.602L487.895 514.484C488.836 514.014 489.934 513.595 491.293 513.595C492.339 513.595 493.333 514.066 493.333 515.268C493.333 517.987 487.32 518.196 486.797 524.837ZM496.261 521.595H502.169V524.837H504.522V521.595H506.509V519.608H504.522V511.556H502.796L496.261 520.026V521.595ZM498.927 519.713L502.274 515.216C502.274 515.582 502.169 516.732 502.169 517.778V519.66H500.6C500.13 519.66 499.241 519.713 498.927 519.713Z" fill="white"/>
<path d="M419.977 522.85V518.719H420.97C421.859 518.719 422.591 518.824 423.114 519.137C423.637 519.451 423.951 519.974 423.951 520.81C423.951 522.222 423.114 522.85 421.127 522.85H419.977ZM417.572 524.837H421.075C424.996 524.837 426.408 523.111 426.408 520.706C426.408 519.085 425.728 517.987 424.526 517.36C423.585 516.837 422.382 516.68 420.918 516.68H419.977V513.543H425.258L425.885 511.608H417.52V524.837H417.572ZM428.029 524.837H430.33L433.31 520.549C433.885 519.765 434.303 518.98 434.565 518.562H434.617C434.565 519.137 434.512 519.869 434.512 520.601V524.784H436.865V515.373H434.565L431.584 519.66C431.062 520.444 430.591 521.229 430.33 521.647H430.277C430.33 521.072 430.382 520.34 430.382 519.608V515.425H428.029V524.837ZM440.891 524.837H443.297V517.36H446.12L446.747 515.373H438.016V517.36H440.891V524.837ZM447.584 529.595H449.937V524.837C450.407 524.993 450.878 525.046 451.401 525.046C454.381 525.046 456.316 523.007 456.316 520.078C456.316 517.046 454.538 515.111 451.139 515.111C449.832 515.111 448.577 515.373 447.532 515.686V529.595H447.584ZM449.937 522.797V517.255C450.303 517.15 450.617 517.098 451.035 517.098C452.76 517.098 453.858 518.039 453.858 520.078C453.858 521.908 452.969 523.059 451.192 523.059C450.721 523.059 450.355 522.954 449.937 522.797ZM457.727 524.837H460.028L463.008 520.549C463.584 519.765 464.002 518.98 464.263 518.562H464.316C464.263 519.137 464.211 519.869 464.211 520.601V524.784H466.564V515.373H464.263L461.283 519.66C460.76 520.444 460.289 521.229 460.028 521.647H459.976C460.028 521.072 460.08 520.34 460.08 519.608V515.425H457.727V524.837ZM468.446 524.837H470.851V520.915H472.263C472.524 520.915 472.786 521.176 473.1 521.804L474.302 524.837H476.864L475.139 521.229C474.825 520.601 474.511 520.235 474.041 520.078V520.026C474.825 519.556 474.93 518.196 475.4 517.516C475.557 517.307 475.766 517.203 476.08 517.203C476.237 517.203 476.446 517.203 476.603 517.307V515.268C476.341 515.164 475.871 515.111 475.609 515.111C474.773 515.111 474.25 515.425 473.884 515.948C473.1 517.098 473.1 519.085 471.949 519.085H470.851V515.373H468.446V524.837ZM482.197 525.046C483.504 525.046 484.707 524.627 485.439 524.105L484.759 522.484C484.08 522.85 483.452 523.111 482.563 523.111C480.942 523.111 479.897 522.065 479.897 520.131C479.897 518.405 480.942 517.046 482.72 517.046C483.661 517.046 484.341 517.307 485.021 517.778V515.739C484.498 515.425 483.661 515.111 482.459 515.111C479.635 515.111 477.439 517.203 477.439 520.183C477.439 522.902 479.112 525.046 482.197 525.046Z" fill="white"/>
<path d="M514.302 521.595C516.864 521.595 518.955 519.504 518.955 516.942C518.955 514.38 516.864 512.288 514.302 512.288C511.74 512.288 509.648 514.38 509.648 516.942C509.701 519.504 511.74 521.595 514.302 521.595Z" stroke="white" stroke-width="1.7688"/>
<path d="M517.23 516.941H514.668V514.379H513.988V517.621H517.23V516.941Z" fill="white"/>
</g>
<g filter="url(#filter10_b_392_5690)">
<rect x="262" y="454" width="115" height="115" rx="57.5" fill="url(#paint30_linear_392_5690)" fill-opacity="0.6"/>
<rect x="263" y="455" width="113" height="113" rx="56.5" stroke="url(#paint31_linear_392_5690)" stroke-opacity="0.6" stroke-width="2"/>
<rect x="263" y="455" width="113" height="113" rx="56.5" stroke="url(#paint32_linear_392_5690)" stroke-width="2"/>
</g>
<g clip-path="url(#clip4_392_5690)">
<path d="M325.19 500.299C325.416 498.694 326.694 497.274 328.309 497.004C329.895 496.677 331.64 497.444 332.42 498.876C333.083 499.966 333.006 501.287 332.993 502.515C335.077 502.228 337.254 502.768 338.894 504.105C338.911 502.903 338.831 501.696 338.94 500.496C339.095 498.818 340.411 497.312 342.08 497.014C343.727 496.654 345.561 497.448 346.354 498.952C347.005 500.062 346.892 501.386 346.888 502.618C348.041 502.5 349.271 502.729 350.168 503.504C351.076 504.22 351.454 505.353 351.827 506.403C352.183 505.508 352.471 504.541 353.153 503.831C354.3 502.586 356.283 502.224 357.789 502.995C358.996 503.569 359.935 504.782 359.981 506.148C360.067 507.239 359.576 508.245 359.176 509.227C357.37 513.695 355.569 518.168 353.764 522.636C353.406 523.526 352.818 524.35 351.994 524.86C350.678 525.701 348.89 525.554 347.609 524.716C346.545 524.023 345.884 522.734 346.015 521.461C346.141 520.29 346.365 519.132 346.591 517.977C345.974 519.312 344.666 520.347 343.166 520.391C341.593 520.548 340.085 519.628 339.336 518.268C337.225 520.332 333.867 521.029 331.169 519.752C330.088 520.261 328.811 520.451 327.676 520.005C326.956 519.758 326.396 519.226 325.887 518.681C323.245 520.332 319.852 520.925 316.877 519.88C315.503 519.411 314.29 518.551 313.321 517.479C311.478 519.549 308.595 520.401 305.897 520.397C302.903 520.395 299.975 518.759 298.489 516.138C298.05 517.534 297.439 519.019 296.119 519.794C294.532 520.753 292.289 520.584 290.94 519.276C290.515 518.88 290.224 518.371 289.931 517.875C289.534 518.661 288.988 519.4 288.201 519.83C286.591 520.743 284.363 520.542 283.032 519.216C282.352 518.564 281.938 517.697 281.633 516.817C280.637 513.989 279.623 511.167 278.629 508.339C278.202 507.133 277.943 505.727 278.568 504.541C279.583 502.522 282.436 501.849 284.304 503.064C285.172 503.586 285.727 504.487 286.036 505.434C286.348 504.6 286.783 503.771 287.522 503.239C289.053 502.091 291.429 502.212 292.774 503.599C293.291 504.106 293.594 504.774 293.848 505.44C294.193 504.309 294.959 503.272 296.065 502.801C297.743 502.036 299.854 502.574 300.987 504.024C302.818 502.71 305.173 502.174 307.389 502.604C309.585 502.993 311.518 504.363 312.807 506.161C314.047 504.405 315.898 503.046 318.028 502.633C320.513 502.095 323.189 502.801 325.124 504.441C325.15 503.06 325.042 501.673 325.19 500.299ZM327.339 501.107C327.328 506.007 327.341 510.907 327.333 515.804C327.335 516.349 327.37 516.938 327.72 517.384C328.238 518.117 329.349 518.241 330.086 517.778C330.5 517.533 330.655 517.051 330.851 516.642C332.41 518.769 335.738 518.559 337.556 516.888C340.284 514.487 340.489 510.09 338.606 507.117C337.713 505.659 336.079 504.675 334.362 504.651C333.065 504.578 331.808 505.073 330.776 505.835C330.762 504.145 330.826 502.45 330.749 500.761C330.719 499.751 329.716 498.928 328.72 499.171C327.814 499.31 327.291 500.246 327.339 501.107ZM342.16 499.293C341.369 499.622 341.055 500.525 341.104 501.325C341.112 506.292 341.093 511.259 341.112 516.223C341.055 517.168 341.739 518.157 342.735 518.191C343.754 518.331 344.67 517.422 344.656 516.418C344.702 511.531 344.651 506.642 344.681 501.755C344.675 501.091 344.712 500.349 344.269 499.802C343.798 499.163 342.869 498.968 342.16 499.293ZM280.451 505.777C280.294 506.654 280.695 507.5 280.963 508.318C281.94 511.039 282.89 513.77 283.873 516.49C284.168 517.347 284.869 518.161 285.839 518.178C286.808 518.308 287.735 517.646 288.002 516.723C288.672 514.737 289.278 512.728 289.942 510.739C290.555 512.606 291.149 514.479 291.749 516.352C291.952 516.976 292.245 517.646 292.86 517.962C293.613 518.335 294.621 518.283 295.253 517.694C295.711 517.273 295.947 516.68 296.157 516.111C297.18 513.203 298.228 510.304 299.251 507.396C299.491 506.751 299.606 505.969 299.184 505.372C298.456 504.296 296.51 504.457 296.104 505.747C295.326 508.146 294.644 510.578 293.887 512.983C293.107 510.599 292.414 508.186 291.611 505.81C291.278 504.675 289.764 504.321 288.86 504.983C288.44 505.295 288.258 505.813 288.097 506.29C287.398 508.521 286.71 510.754 285.996 512.981C285.27 510.649 284.584 508.305 283.865 505.974C283.559 504.327 280.94 504.218 280.451 505.777ZM301.479 506.535C299.234 508.839 298.91 512.704 300.65 515.39C301.487 516.697 302.859 517.625 304.359 517.986C306.277 518.451 308.338 518.113 310.087 517.234C310.744 516.882 311.424 516.448 311.765 515.759C312.273 514.777 311.189 513.442 310.124 513.775C309.296 514.062 308.595 514.623 307.765 514.91C306.528 515.357 305.016 515.197 304.002 514.326C303.493 513.907 303.28 513.262 303.1 512.652C305.708 512.619 308.319 512.686 310.926 512.623C311.601 512.636 312.156 512.051 312.17 511.387C312.34 508.19 309.767 505.048 306.564 504.707C304.704 504.476 302.761 505.165 301.479 506.535ZM315.973 505.978C313.779 507.712 312.94 510.825 313.687 513.486C314.135 515.205 315.319 516.741 316.932 517.51C319.119 518.584 321.772 518.318 323.914 517.262C324.613 516.891 325.351 516.433 325.682 515.679C326.1 514.692 325.027 513.435 323.987 513.779C323.249 514.041 322.613 514.52 321.891 514.813C320.638 515.364 319.058 515.257 317.968 514.397C317.414 513.975 317.171 513.301 316.977 512.658C319.571 512.614 322.167 512.683 324.761 512.626C325.451 512.654 326.043 512.076 326.049 511.386C326.211 508.412 324.006 505.492 321.108 504.817C319.337 504.411 317.39 504.823 315.973 505.978ZM346.003 505.825C345.785 506.376 345.984 506.971 346.187 507.492C347.455 510.618 348.706 513.75 349.967 516.877C349.479 518.096 348.978 519.309 348.488 520.526C348.293 521.05 348.084 521.643 348.298 522.194C348.618 523.019 349.645 523.363 350.455 523.159C351.191 522.942 351.566 522.2 351.827 521.538C353.743 516.756 355.687 511.981 357.605 507.199C357.95 506.458 357.77 505.471 357.007 505.069C356.116 504.468 354.771 504.901 354.409 505.917C353.499 508.146 352.647 510.4 351.756 512.637C350.98 510.528 350.201 508.418 349.436 506.305C349.235 505.743 348.915 505.153 348.323 504.937C347.476 504.555 346.369 504.968 346.003 505.825ZM304.137 508.351C303.64 508.845 303.441 509.537 303.271 510.197C305.162 510.205 307.054 510.205 308.947 510.197C308.769 509.541 308.579 508.85 308.087 508.353C307.085 507.241 305.141 507.243 304.137 508.351ZM317.917 508.332C317.411 508.831 317.206 509.528 317.032 510.195C318.923 510.207 320.816 510.205 322.708 510.197C322.532 509.556 322.35 508.879 321.877 508.385C320.892 507.249 318.933 507.228 317.917 508.332ZM332.978 507.932C332.326 508.073 331.765 508.514 331.418 509.078C330.554 510.551 330.636 512.547 331.596 513.955C332.372 515.132 334.219 515.333 335.219 514.332C336.606 512.931 336.664 510.517 335.57 508.923C335.016 508.094 333.947 507.683 332.978 507.932Z" fill="white"/>
</g>
<g filter="url(#filter11_b_392_5690)">
<rect x="320" width="94" height="94" rx="47" fill="url(#paint33_linear_392_5690)" fill-opacity="0.6"/>
<rect x="321" y="1" width="92" height="92" rx="46" stroke="url(#paint34_linear_392_5690)" stroke-opacity="0.6" stroke-width="2"/>
<rect x="321" y="1" width="92" height="92" rx="46" stroke="url(#paint35_linear_392_5690)" stroke-width="2"/>
</g>
<path d="M368.543 43.9101V62.6825H364.883V42.5332L368.543 43.9101Z" fill="white"/>
<path d="M354.371 42.2649C354.203 37.3283 356.856 34.8433 360.214 34.8433C362.229 34.8433 363.774 35.4813 367.166 37.0261C369.651 38.2015 371.363 39.1418 373.21 39.1418C374.957 39.1418 375.763 37.6642 375.863 35.0112H378.684C378.987 40.5186 376.166 42.4328 373.143 42.4328C371.229 42.4328 369.382 41.8955 366.091 40.25C363.807 39.1418 361.96 38.0671 360.248 38.0671C358.535 38.0671 357.427 39.2425 357.427 42.2649H354.371Z" fill="white"/>
<path d="M367 74C352.09 74 340 61.9104 340 47C340 32.0896 352.09 20 367 20C381.91 20 394 32.0896 394 47C394 61.8433 381.843 74 367 74ZM367 21.6791C352.996 21.6791 341.646 32.9963 341.646 46.9328C341.646 60.8694 352.996 72.1866 366.899 72.1866C380.802 72.1866 392.153 60.8358 392.153 46.9328C392.153 33.0299 380.903 21.6791 367 21.6791Z" fill="white"/>
<path d="M368.543 43.9101V62.6825H364.883V42.5332L368.543 43.9101Z" fill="white"/>
<path d="M354.371 42.2649C354.203 37.3283 356.856 34.8433 360.214 34.8433C362.229 34.8433 363.774 35.4813 367.166 37.0261C369.651 38.2015 371.363 39.1418 373.21 39.1418C374.957 39.1418 375.763 37.6642 375.863 35.0112H378.684C378.987 40.5186 376.166 42.4328 373.143 42.4328C371.229 42.4328 369.382 41.8955 366.091 40.25C363.807 39.1418 361.96 38.0671 360.248 38.0671C358.535 38.0671 357.427 39.2425 357.427 42.2649H354.371Z" fill="white"/>
<path d="M367 74C352.09 74 340 61.9104 340 47C340 32.0896 352.09 20 367 20C381.91 20 394 32.0896 394 47C394 61.8433 381.843 74 367 74ZM367 21.6791C352.996 21.6791 341.646 32.9963 341.646 46.9328C341.646 60.8694 352.996 72.1866 366.899 72.1866C380.802 72.1866 392.153 60.8358 392.153 46.9328C392.153 33.0299 380.903 21.6791 367 21.6791Z" fill="white"/>
<defs>
<filter id="filter0_b_392_5690" x="341" y="62" width="400" height="400" filterUnits="userSpaceOnUse" color-interpolation-filters="sRGB">
<feFlood flood-opacity="0" result="BackgroundImageFix"/>
<feGaussianBlur in="BackgroundImage" stdDeviation="70"/>
<feComposite in2="SourceAlpha" operator="in" result="effect1_backgroundBlur_392_5690"/>
<feBlend mode="normal" in="SourceGraphic" in2="effect1_backgroundBlur_392_5690" result="shape"/>
</filter>
<filter id="filter1_b_392_5690" x="56" y="83" width="388" height="388" filterUnits="userSpaceOnUse" color-interpolation-filters="sRGB">
<feFlood flood-opacity="0" result="BackgroundImageFix"/>
<feGaussianBlur in="BackgroundImage" stdDeviation="70"/>
<feComposite in2="SourceAlpha" operator="in" result="effect1_backgroundBlur_392_5690"/>
<feBlend mode="normal" in="SourceGraphic" in2="effect1_backgroundBlur_392_5690" result="shape"/>
</filter>
<filter id="filter2_b_392_5690" x="-12" y="213" width="422" height="422" filterUnits="userSpaceOnUse" color-interpolation-filters="sRGB">
<feFlood flood-opacity="0" result="BackgroundImageFix"/>
<feGaussianBlur in="BackgroundImage" stdDeviation="70"/>
<feComposite in2="SourceAlpha" operator="in" result="effect1_backgroundBlur_392_5690"/>
<feBlend mode="normal" in="SourceGraphic" in2="effect1_backgroundBlur_392_5690" result="shape"/>
</filter>
<filter id="filter3_b_392_5690" x="180" y="-9" width="422" height="422" filterUnits="userSpaceOnUse" color-interpolation-filters="sRGB">
<feFlood flood-opacity="0" result="BackgroundImageFix"/>
<feGaussianBlur in="BackgroundImage" stdDeviation="70"/>
<feComposite in2="SourceAlpha" operator="in" result="effect1_backgroundBlur_392_5690"/>
<feBlend mode="normal" in="SourceGraphic" in2="effect1_backgroundBlur_392_5690" result="shape"/>
</filter>
<filter id="filter4_b_392_5690" x="338" y="209" width="379" height="379" filterUnits="userSpaceOnUse" color-interpolation-filters="sRGB">
<feFlood flood-opacity="0" result="BackgroundImageFix"/>
<feGaussianBlur in="BackgroundImage" stdDeviation="70"/>
<feComposite in2="SourceAlpha" operator="in" result="effect1_backgroundBlur_392_5690"/>
<feBlend mode="normal" in="SourceGraphic" in2="effect1_backgroundBlur_392_5690" result="shape"/>
</filter>
<filter id="filter5_b_392_5690" x="-3" y="-110" width="450" height="450" filterUnits="userSpaceOnUse" color-interpolation-filters="sRGB">
<feFlood flood-opacity="0" result="BackgroundImageFix"/>
<feGaussianBlur in="BackgroundImage" stdDeviation="70"/>
<feComposite in2="SourceAlpha" operator="in" result="effect1_backgroundBlur_392_5690"/>
<feBlend mode="normal" in="SourceGraphic" in2="effect1_backgroundBlur_392_5690" result="shape"/>
</filter>
<filter id="filter6_b_392_5690" x="-140" y="43" width="450" height="450" filterUnits="userSpaceOnUse" color-interpolation-filters="sRGB">
<feFlood flood-opacity="0" result="BackgroundImageFix"/>
<feGaussianBlur in="BackgroundImage" stdDeviation="70"/>
<feComposite in2="SourceAlpha" operator="in" result="effect1_backgroundBlur_392_5690"/>
<feBlend mode="normal" in="SourceGraphic" in2="effect1_backgroundBlur_392_5690" result="shape"/>
</filter>
<filter id="filter7_b_392_5690" x="164" y="158" width="422" height="422" filterUnits="userSpaceOnUse" color-interpolation-filters="sRGB">
<feFlood flood-opacity="0" result="BackgroundImageFix"/>
<feGaussianBlur in="BackgroundImage" stdDeviation="70"/>
<feComposite in2="SourceAlpha" operator="in" result="effect1_backgroundBlur_392_5690"/>
<feBlend mode="normal" in="SourceGraphic" in2="effect1_backgroundBlur_392_5690" result="shape"/>
</filter>
<filter id="filter8_b_392_5690" x="287" y="-106" width="395" height="395" filterUnits="userSpaceOnUse" color-interpolation-filters="sRGB">
<feFlood flood-opacity="0" result="BackgroundImageFix"/>
<feGaussianBlur in="BackgroundImage" stdDeviation="70"/>
<feComposite in2="SourceAlpha" operator="in" result="effect1_backgroundBlur_392_5690"/>
<feBlend mode="normal" in="SourceGraphic" in2="effect1_backgroundBlur_392_5690" result="shape"/>
</filter>
<filter id="filter9_b_392_5690" x="265" y="317" width="407" height="407" filterUnits="userSpaceOnUse" color-interpolation-filters="sRGB">
<feFlood flood-opacity="0" result="BackgroundImageFix"/>
<feGaussianBlur in="BackgroundImage" stdDeviation="70"/>
<feComposite in2="SourceAlpha" operator="in" result="effect1_backgroundBlur_392_5690"/>
<feBlend mode="normal" in="SourceGraphic" in2="effect1_backgroundBlur_392_5690" result="shape"/>
</filter>
<filter id="filter10_b_392_5690" x="122" y="314" width="395" height="395" filterUnits="userSpaceOnUse" color-interpolation-filters="sRGB">
<feFlood flood-opacity="0" result="BackgroundImageFix"/>
<feGaussianBlur in="BackgroundImage" stdDeviation="70"/>
<feComposite in2="SourceAlpha" operator="in" result="effect1_backgroundBlur_392_5690"/>
<feBlend mode="normal" in="SourceGraphic" in2="effect1_backgroundBlur_392_5690" result="shape"/>
</filter>
<filter id="filter11_b_392_5690" x="180" y="-140" width="374" height="374" filterUnits="userSpaceOnUse" color-interpolation-filters="sRGB">
<feFlood flood-opacity="0" result="BackgroundImageFix"/>
<feGaussianBlur in="BackgroundImage" stdDeviation="70"/>
<feComposite in2="SourceAlpha" operator="in" result="effect1_backgroundBlur_392_5690"/>
<feBlend mode="normal" in="SourceGraphic" in2="effect1_backgroundBlur_392_5690" result="shape"/>
</filter>
<linearGradient id="paint0_linear_392_5690" x1="541" y1="202" x2="637.11" y2="273.379" gradientUnits="userSpaceOnUse">
<stop stop-color="white" stop-opacity="0.2"/>
<stop offset="1" stop-color="white" stop-opacity="0"/>
</linearGradient>
<linearGradient id="paint1_linear_392_5690" x1="624.011" y1="249.972" x2="583.033" y2="251.273" gradientUnits="userSpaceOnUse">
<stop stop-color="white"/>
<stop offset="1" stop-color="#EFEFEF" stop-opacity="0"/>
</linearGradient>
<linearGradient id="paint2_linear_392_5690" x1="481" y1="202" x2="529.561" y2="227.813" gradientUnits="userSpaceOnUse">
<stop stop-color="white" stop-opacity="0.5"/>
<stop offset="1" stop-color="white" stop-opacity="0"/>
</linearGradient>
<linearGradient id="paint3_linear_392_5690" x1="250" y1="223" x2="336.499" y2="287.241" gradientUnits="userSpaceOnUse">
<stop stop-color="white" stop-opacity="0.2"/>
<stop offset="1" stop-color="white" stop-opacity="0"/>
</linearGradient>
<linearGradient id="paint4_linear_392_5690" x1="324.71" y1="266.175" x2="287.829" y2="267.345" gradientUnits="userSpaceOnUse">
<stop stop-color="white"/>
<stop offset="1" stop-color="#EFEFEF" stop-opacity="0"/>
</linearGradient>
<linearGradient id="paint5_linear_392_5690" x1="196" y1="223" x2="239.705" y2="246.231" gradientUnits="userSpaceOnUse">
<stop stop-color="white" stop-opacity="0.5"/>
<stop offset="1" stop-color="white" stop-opacity="0"/>
</linearGradient>
<linearGradient id="paint6_linear_392_5690" x1="199" y1="353" x2="312.73" y2="437.465" gradientUnits="userSpaceOnUse">
<stop stop-color="white" stop-opacity="0.2"/>
<stop offset="1" stop-color="white" stop-opacity="0"/>
</linearGradient>
<linearGradient id="paint7_linear_392_5690" x1="297.23" y1="409.767" x2="248.739" y2="411.306" gradientUnits="userSpaceOnUse">
<stop stop-color="white"/>
<stop offset="1" stop-color="#EFEFEF" stop-opacity="0"/>
</linearGradient>
<linearGradient id="paint8_linear_392_5690" x1="128" y1="353" x2="185.464" y2="383.545" gradientUnits="userSpaceOnUse">
<stop stop-color="white" stop-opacity="0.5"/>
<stop offset="1" stop-color="white" stop-opacity="0"/>
</linearGradient>
<linearGradient id="paint9_linear_392_5690" x1="391" y1="131" x2="504.73" y2="215.465" gradientUnits="userSpaceOnUse">
<stop stop-color="white" stop-opacity="0.2"/>
<stop offset="1" stop-color="white" stop-opacity="0"/>
</linearGradient>
<linearGradient id="paint10_linear_392_5690" x1="489.23" y1="187.767" x2="440.739" y2="189.306" gradientUnits="userSpaceOnUse">
<stop stop-color="white"/>
<stop offset="1" stop-color="#EFEFEF" stop-opacity="0"/>
</linearGradient>
<linearGradient id="paint11_linear_392_5690" x1="320" y1="131" x2="377.464" y2="161.545" gradientUnits="userSpaceOnUse">
<stop stop-color="white" stop-opacity="0.5"/>
<stop offset="1" stop-color="white" stop-opacity="0"/>
</linearGradient>
<linearGradient id="paint12_linear_392_5690" x1="527.5" y1="349" x2="606.791" y2="407.887" gradientUnits="userSpaceOnUse">
<stop stop-color="white" stop-opacity="0.2"/>
<stop offset="1" stop-color="white" stop-opacity="0"/>
</linearGradient>
<linearGradient id="paint13_linear_392_5690" x1="595.984" y1="388.577" x2="562.177" y2="389.65" gradientUnits="userSpaceOnUse">
<stop stop-color="white"/>
<stop offset="1" stop-color="#EFEFEF" stop-opacity="0"/>
</linearGradient>
<linearGradient id="paint14_linear_392_5690" x1="478" y1="349" x2="518.063" y2="370.295" gradientUnits="userSpaceOnUse">
<stop stop-color="white" stop-opacity="0.5"/>
<stop offset="1" stop-color="white" stop-opacity="0"/>
</linearGradient>
<linearGradient id="paint15_linear_392_5690" x1="222" y1="30" x2="358.156" y2="131.12" gradientUnits="userSpaceOnUse">
<stop stop-color="white" stop-opacity="0.2"/>
<stop offset="1" stop-color="white" stop-opacity="0"/>
</linearGradient>
<linearGradient id="paint16_linear_392_5690" x1="339.599" y1="97.9604" x2="281.546" y2="99.8029" gradientUnits="userSpaceOnUse">
<stop stop-color="white"/>
<stop offset="1" stop-color="#EFEFEF" stop-opacity="0"/>
</linearGradient>
<linearGradient id="paint17_linear_392_5690" x1="137" y1="30" x2="205.794" y2="66.5677" gradientUnits="userSpaceOnUse">
<stop stop-color="white" stop-opacity="0.5"/>
<stop offset="1" stop-color="white" stop-opacity="0"/>
</linearGradient>
<linearGradient id="paint18_linear_392_5690" x1="85" y1="183" x2="221.156" y2="284.12" gradientUnits="userSpaceOnUse">
<stop stop-color="white" stop-opacity="0.2"/>
<stop offset="1" stop-color="white" stop-opacity="0"/>
</linearGradient>
<linearGradient id="paint19_linear_392_5690" x1="202.599" y1="250.96" x2="144.546" y2="252.803" gradientUnits="userSpaceOnUse">
<stop stop-color="white"/>
<stop offset="1" stop-color="#EFEFEF" stop-opacity="0"/>
</linearGradient>
<linearGradient id="paint20_linear_392_5690" x1="0" y1="183" x2="68.7944" y2="219.568" gradientUnits="userSpaceOnUse">
<stop stop-color="white" stop-opacity="0.5"/>
<stop offset="1" stop-color="white" stop-opacity="0"/>
</linearGradient>
<linearGradient id="paint21_linear_392_5690" x1="375" y1="298" x2="488.73" y2="382.465" gradientUnits="userSpaceOnUse">
<stop stop-color="white" stop-opacity="0.2"/>
<stop offset="1" stop-color="white" stop-opacity="0"/>
</linearGradient>
<linearGradient id="paint22_linear_392_5690" x1="473.23" y1="354.767" x2="424.739" y2="356.306" gradientUnits="userSpaceOnUse">
<stop stop-color="white"/>
<stop offset="1" stop-color="#EFEFEF" stop-opacity="0"/>
</linearGradient>
<linearGradient id="paint23_linear_392_5690" x1="304" y1="298" x2="361.464" y2="328.545" gradientUnits="userSpaceOnUse">
<stop stop-color="white" stop-opacity="0.5"/>
<stop offset="1" stop-color="white" stop-opacity="0"/>
</linearGradient>
<linearGradient id="paint24_linear_392_5690" x1="484.5" y1="34" x2="576.605" y2="102.404" gradientUnits="userSpaceOnUse">
<stop stop-color="white" stop-opacity="0.2"/>
<stop offset="1" stop-color="white" stop-opacity="0"/>
</linearGradient>
<linearGradient id="paint25_linear_392_5690" x1="564.053" y1="79.9732" x2="524.781" y2="81.2196" gradientUnits="userSpaceOnUse">
<stop stop-color="white"/>
<stop offset="1" stop-color="#EFEFEF" stop-opacity="0"/>
</linearGradient>
<linearGradient id="paint26_linear_392_5690" x1="427" y1="34" x2="473.537" y2="58.737" gradientUnits="userSpaceOnUse">
<stop stop-color="white" stop-opacity="0.5"/>
<stop offset="1" stop-color="white" stop-opacity="0"/>
</linearGradient>
<linearGradient id="paint27_linear_392_5690" x1="468.5" y1="457" x2="570.216" y2="532.542" gradientUnits="userSpaceOnUse">
<stop stop-color="white" stop-opacity="0.2"/>
<stop offset="1" stop-color="white" stop-opacity="0"/>
</linearGradient>
<linearGradient id="paint28_linear_392_5690" x1="556.354" y1="507.77" x2="512.984" y2="509.147" gradientUnits="userSpaceOnUse">
<stop stop-color="white"/>
<stop offset="1" stop-color="#EFEFEF" stop-opacity="0"/>
</linearGradient>
<linearGradient id="paint29_linear_392_5690" x1="405" y1="457" x2="456.393" y2="484.318" gradientUnits="userSpaceOnUse">
<stop stop-color="white" stop-opacity="0.5"/>
<stop offset="1" stop-color="white" stop-opacity="0"/>
</linearGradient>
<linearGradient id="paint30_linear_392_5690" x1="319.5" y1="454" x2="411.605" y2="522.404" gradientUnits="userSpaceOnUse">
<stop stop-color="white" stop-opacity="0.2"/>
<stop offset="1" stop-color="white" stop-opacity="0"/>
</linearGradient>
<linearGradient id="paint31_linear_392_5690" x1="399.053" y1="499.973" x2="359.781" y2="501.22" gradientUnits="userSpaceOnUse">
<stop stop-color="white"/>
<stop offset="1" stop-color="#EFEFEF" stop-opacity="0"/>
</linearGradient>
<linearGradient id="paint32_linear_392_5690" x1="262" y1="454" x2="308.537" y2="478.737" gradientUnits="userSpaceOnUse">
<stop stop-color="white" stop-opacity="0.5"/>
<stop offset="1" stop-color="white" stop-opacity="0"/>
</linearGradient>
<linearGradient id="paint33_linear_392_5690" x1="367" y1="0" x2="442.286" y2="55.9132" gradientUnits="userSpaceOnUse">
<stop stop-color="white" stop-opacity="0.2"/>
<stop offset="1" stop-color="white" stop-opacity="0"/>
</linearGradient>
<linearGradient id="paint34_linear_392_5690" x1="432.026" y1="37.5781" x2="399.926" y2="38.5969" gradientUnits="userSpaceOnUse">
<stop stop-color="white"/>
<stop offset="1" stop-color="#EFEFEF" stop-opacity="0"/>
</linearGradient>
<linearGradient id="paint35_linear_392_5690" x1="320" y1="0" x2="358.039" y2="20.2198" gradientUnits="userSpaceOnUse">
<stop stop-color="white" stop-opacity="0.5"/>
<stop offset="1" stop-color="white" stop-opacity="0"/>
</linearGradient>
<clipPath id="clip0_392_5690">
<rect width="55.3053" height="71" fill="white" transform="translate(513 226)"/>
</clipPath>
<clipPath id="clip1_392_5690">
<rect width="117" height="34" fill="white" transform="translate(141 407)"/>
</clipPath>
<clipPath id="clip2_392_5690">
<rect width="55.5955" height="44.7652" fill="white" transform="translate(499.703 376.548)"/>
</clipPath>
<clipPath id="clip3_392_5690">
<rect width="101.958" height="18.3001" fill="white" transform="translate(417.52 511.556)"/>
</clipPath>
<clipPath id="clip4_392_5690">
<rect width="81.7958" height="28.5046" fill="white" transform="translate(278.195 496.922)"/>
</clipPath>
</defs>
</svg>
