<svg width="24" height="24" viewBox="0 0 24 24" fill="none" xmlns="http://www.w3.org/2000/svg">
<path d="M19.414 5.586L16.414 2.586C16.039 2.211 15.53 2 15 2H6C4.895 2 4 2.895 4 4V20C4 21.105 4.895 22 6 22H18C19.105 22 20 21.105 20 20V7C20 6.47 19.789 5.961 19.414 5.586Z" fill="url(#paint0_linear_1218_4499)"/>
<path d="M16.0604 2.93955L19.0604 5.93955C19.3418 6.22089 19.5 6.60276 19.5 7V20C19.5 20.8289 18.8289 21.5 18 21.5H6C5.17114 21.5 4.5 20.8289 4.5 20V4C4.5 3.17114 5.17114 2.5 6 2.5H15C15.3972 2.5 15.7791 2.65822 16.0604 2.93955Z" stroke="#6F4EF1" stroke-opacity="0.56"/>
<g filter="url(#filter0_b_1218_4499)">
<mask id="path-3-inside-1_1218_4499" fill="white">
<path fill-rule="evenodd" clip-rule="evenodd" d="M8 11C7.44772 11 7 11.4477 7 12C7 12.5523 7.44772 13 8 13H16C16.5523 13 17 12.5523 17 12C17 11.4477 16.5523 11 16 11H8ZM7 15C7 14.4477 7.44772 14 8 14H16C16.5523 14 17 14.4477 17 15C17 15.5523 16.5523 16 16 16H8C7.44772 16 7 15.5523 7 15ZM7 18C7 17.4477 7.44772 17 8 17H16C16.5523 17 17 17.4477 17 18C17 18.5523 16.5523 19 16 19H8C7.44772 19 7 18.5523 7 18Z"/>
</mask>
<path fill-rule="evenodd" clip-rule="evenodd" d="M8 11C7.44772 11 7 11.4477 7 12C7 12.5523 7.44772 13 8 13H16C16.5523 13 17 12.5523 17 12C17 11.4477 16.5523 11 16 11H8ZM7 15C7 14.4477 7.44772 14 8 14H16C16.5523 14 17 14.4477 17 15C17 15.5523 16.5523 16 16 16H8C7.44772 16 7 15.5523 7 15ZM7 18C7 17.4477 7.44772 17 8 17H16C16.5523 17 17 17.4477 17 18C17 18.5523 16.5523 19 16 19H8C7.44772 19 7 18.5523 7 18Z" fill="url(#paint1_radial_1218_4499)"/>
<path d="M8 12V10C6.89543 10 6 10.8954 6 12H8ZM8 12H6C6 13.1046 6.89543 14 8 14V12ZM16 12H8V14H16V12ZM16 12V14C17.1046 14 18 13.1046 18 12H16ZM16 12H18C18 10.8954 17.1046 10 16 10V12ZM8 12H16V10H8V12ZM8 13C6.89543 13 6 13.8954 6 15H8V13ZM16 13H8V15H16V13ZM18 15C18 13.8954 17.1046 13 16 13V15H18ZM16 17C17.1046 17 18 16.1046 18 15H16V17ZM8 17H16V15H8V17ZM6 15C6 16.1046 6.89543 17 8 17V15H6ZM8 16C6.89543 16 6 16.8954 6 18H8V16ZM16 16H8V18H16V16ZM18 18C18 16.8954 17.1046 16 16 16V18H18ZM16 20C17.1046 20 18 19.1046 18 18H16V20ZM8 20H16V18H8V20ZM6 18C6 19.1046 6.89543 20 8 20V18H6Z" fill="url(#paint2_radial_1218_4499)" mask="url(#path-3-inside-1_1218_4499)"/>
</g>
<g filter="url(#filter1_b_1218_4499)">
<path d="M16.414 2.586L19.414 5.586C19.789 5.961 20 6.47 20 7V9H15C13.8954 9 13 8.10457 13 7V2H15C15.53 2 16.039 2.211 16.414 2.586Z" fill="url(#paint3_radial_1218_4499)"/>
</g>
<defs>
<filter id="filter0_b_1218_4499" x="-6.59141" y="-2.59141" width="37.1828" height="35.1828" filterUnits="userSpaceOnUse" color-interpolation-filters="sRGB">
<feFlood flood-opacity="0" result="BackgroundImageFix"/>
<feGaussianBlur in="BackgroundImage" stdDeviation="6.7957"/>
<feComposite in2="SourceAlpha" operator="in" result="effect1_backgroundBlur_1218_4499"/>
<feBlend mode="normal" in="SourceGraphic" in2="effect1_backgroundBlur_1218_4499" result="shape"/>
</filter>
<filter id="filter1_b_1218_4499" x="-0.591409" y="-11.5914" width="34.1828" height="34.1828" filterUnits="userSpaceOnUse" color-interpolation-filters="sRGB">
<feFlood flood-opacity="0" result="BackgroundImageFix"/>
<feGaussianBlur in="BackgroundImage" stdDeviation="6.7957"/>
<feComposite in2="SourceAlpha" operator="in" result="effect1_backgroundBlur_1218_4499"/>
<feBlend mode="normal" in="SourceGraphic" in2="effect1_backgroundBlur_1218_4499" result="shape"/>
</filter>
<linearGradient id="paint0_linear_1218_4499" x1="12" y1="3" x2="12" y2="21" gradientUnits="userSpaceOnUse">
<stop stop-color="#4C22F0"/>
<stop offset="1" stop-color="#471DF1"/>
</linearGradient>
<radialGradient id="paint1_radial_1218_4499" cx="0" cy="0" r="1" gradientUnits="userSpaceOnUse" gradientTransform="translate(10 12) rotate(39.8056) scale(7.81025 11.5628)">
<stop stop-color="white" stop-opacity="0.799873"/>
<stop offset="1" stop-color="#C0C5F3" stop-opacity="0.53"/>
</radialGradient>
<radialGradient id="paint2_radial_1218_4499" cx="0" cy="0" r="1" gradientUnits="userSpaceOnUse" gradientTransform="translate(8.72587 11.1056) rotate(23.8693) scale(2.99398 4.4655)">
<stop stop-color="white"/>
<stop offset="1" stop-color="white" stop-opacity="0.01"/>
</radialGradient>
<radialGradient id="paint3_radial_1218_4499" cx="0" cy="0" r="1" gradientUnits="userSpaceOnUse" gradientTransform="translate(14.896 3.16993) rotate(51.1744) scale(4.21915)">
<stop stop-color="white" stop-opacity="0.799873"/>
<stop offset="1" stop-color="#C0C5F3" stop-opacity="0.53"/>
</radialGradient>
</defs>
</svg>
