<svg width="84" height="90" viewBox="0 0 84 90" fill="none" xmlns="http://www.w3.org/2000/svg">
<path d="M22.309 64.6875C21.5845 64.6913 21 65.3212 21 66.0975C21 66.8737 21.588 67.5 22.3125 67.5C23.037 67.5 23.625 66.87 23.625 66.0938C23.625 65.3175 23.037 64.6875 22.309 64.6875Z" stroke="#4419EF" stroke-width="1.5" stroke-linecap="round" stroke-linejoin="round"/>
<path d="M14.875 54.375H71.7605C76.5891 54.375 80.5 58.4504 80.5 63.4821V77.1429C80.5 82.1746 76.5891 86.25 71.7605 86.25H19.25" fill="url(#paint0_linear_408_6793)"/>
<g filter="url(#filter0_b_408_6793)">
<path d="M18.375 86.25C10.1597 86.25 3.5 79.0679 3.5 70.2083V12.9167C3.5 7.85208 7.30375 3.75 12 3.75H24.75C29.4463 3.75 33.25 7.85208 33.25 12.9167V70.2083C33.25 79.0679 26.5903 86.25 18.375 86.25Z" fill="url(#paint1_radial_408_6793)"/>
<path d="M18.375 85.75C10.4708 85.75 4 78.828 4 70.2083V12.9167C4 8.092 7.61477 4.25 12 4.25H24.75C29.1352 4.25 32.75 8.092 32.75 12.9167V70.2083C32.75 78.828 26.2792 85.75 18.375 85.75Z" stroke="url(#paint2_radial_408_6793)"/>
</g>
<g filter="url(#filter1_b_408_6793)">
<path d="M33.25 69.375L70.9572 36.4409C74.3476 32.8863 74.3476 27.1242 70.9572 23.5695L61.7496 13.916C58.3592 10.3613 52.8633 10.3613 49.4729 13.916L33.25 30.9155" fill="#623EF1" fill-opacity="0.8"/>
</g>
<defs>
<filter id="filter0_b_408_6793" x="-10.0914" y="-9.84141" width="56.9328" height="109.683" filterUnits="userSpaceOnUse" color-interpolation-filters="sRGB">
<feFlood flood-opacity="0" result="BackgroundImageFix"/>
<feGaussianBlur in="BackgroundImage" stdDeviation="6.7957"/>
<feComposite in2="SourceAlpha" operator="in" result="effect1_backgroundBlur_408_6793"/>
<feBlend mode="normal" in="SourceGraphic" in2="effect1_backgroundBlur_408_6793" result="shape"/>
</filter>
<filter id="filter1_b_408_6793" x="24.1833" y="2.18333" width="58.3833" height="76.2583" filterUnits="userSpaceOnUse" color-interpolation-filters="sRGB">
<feFlood flood-opacity="0" result="BackgroundImageFix"/>
<feGaussianBlur in="BackgroundImage" stdDeviation="4.53333"/>
<feComposite in2="SourceAlpha" operator="in" result="effect1_backgroundBlur_408_6793"/>
<feBlend mode="normal" in="SourceGraphic" in2="effect1_backgroundBlur_408_6793" result="shape"/>
</filter>
<linearGradient id="paint0_linear_408_6793" x1="47.6875" y1="54.375" x2="47.6875" y2="86.25" gradientUnits="userSpaceOnUse">
<stop stop-color="#4C22F0"/>
<stop offset="1" stop-color="#471DF1"/>
</linearGradient>
<radialGradient id="paint1_radial_408_6793" cx="0" cy="0" r="1" gradientUnits="userSpaceOnUse" gradientTransform="translate(7.94264 19.8365) rotate(73.8173) scale(47.0603 25.7889)">
<stop stop-color="white" stop-opacity="0.799873"/>
<stop offset="1" stop-color="#C0C5F3" stop-opacity="0.53"/>
</radialGradient>
<radialGradient id="paint2_radial_408_6793" cx="0" cy="0" r="1" gradientUnits="userSpaceOnUse" gradientTransform="translate(8.63446 8.10467) rotate(80.7429) scale(50.6345 32.4028)">
<stop stop-color="white"/>
<stop offset="1" stop-color="white" stop-opacity="0.01"/>
</radialGradient>
</defs>
</svg>
