<svg width="90" height="90" viewBox="0 0 90 90" fill="none" xmlns="http://www.w3.org/2000/svg">
<path fill-rule="evenodd" clip-rule="evenodd" d="M4 14C4 7.92487 8.92487 3 15 3H75C81.0751 3 86 7.92487 86 14C86 20.0751 81.0751 25 75 25H15C8.92487 25 4 20.0751 4 14ZM4 46C4 39.9249 8.92487 35 15 35H75C81.0751 35 86 39.9249 86 46C86 52.0751 81.0751 57 75 57H15C8.92487 57 4 52.0751 4 46ZM15 65C8.92487 65 4 69.9249 4 76C4 82.0751 8.92487 87 15 87H75C81.0751 87 86 82.0751 86 76C86 69.9249 81.0751 65 75 65H15Z" fill="url(#paint0_linear_392_6158)"/>
<g filter="url(#filter0_b_392_6158)">
<mask id="path-2-inside-1_392_6158" fill="white">
<path d="M81.364 7.63604C84.8787 11.1508 84.8787 16.8492 81.364 20.364C77.8492 23.8787 72.1508 23.8787 68.636 20.364C65.1213 16.8492 65.1213 11.1508 68.636 7.63604C72.1508 4.12132 77.8492 4.12132 81.364 7.63604Z"/>
</mask>
<path d="M81.364 7.63604C84.8787 11.1508 84.8787 16.8492 81.364 20.364C77.8492 23.8787 72.1508 23.8787 68.636 20.364C65.1213 16.8492 65.1213 11.1508 68.636 7.63604C72.1508 4.12132 77.8492 4.12132 81.364 7.63604Z" fill="url(#paint1_radial_392_6158)"/>
<path d="M81.364 20.364L80.6569 19.6569L80.6568 19.6569L81.364 20.364ZM68.636 20.364L69.3431 19.6569H69.3431L68.636 20.364ZM68.636 7.63604L69.3431 8.34315L69.3431 8.34315L68.636 7.63604ZM80.6568 8.34315C83.781 11.4673 83.781 16.5327 80.6569 19.6569L82.0711 21.0711C85.9763 17.1658 85.9763 10.8342 82.0711 6.92894L80.6568 8.34315ZM80.6568 19.6569C77.5327 22.781 72.4673 22.781 69.3431 19.6569L67.9289 21.0711C71.8342 24.9763 78.1658 24.9763 82.0711 21.0711L80.6568 19.6569ZM69.3431 19.6569C66.219 16.5327 66.219 11.4673 69.3431 8.34315L67.9289 6.92893C64.0237 10.8342 64.0237 17.1658 67.9289 21.0711L69.3431 19.6569ZM69.3431 8.34315C72.4673 5.21895 77.5327 5.21895 80.6568 8.34315L82.0711 6.92894C78.1658 3.02369 71.8342 3.02369 67.9289 6.92894L69.3431 8.34315Z" fill="url(#paint2_radial_392_6158)" mask="url(#path-2-inside-1_392_6158)"/>
</g>
<g filter="url(#filter1_b_392_6158)">
<path d="M76.8446 12.2663C77.8331 13.2548 77.8331 14.8575 76.8446 15.846C75.856 16.8345 74.2533 16.8345 73.2648 15.846C72.2763 14.8575 72.2763 13.2548 73.2648 12.2663C74.2533 11.2778 75.856 11.2778 76.8446 12.2663Z" fill="white" fill-opacity="0.8"/>
</g>
<g filter="url(#filter2_b_392_6158)">
<mask id="path-5-inside-2_392_6158" fill="white">
<path d="M21.364 39.636C24.8787 43.1508 24.8787 48.8492 21.364 52.364C17.8492 55.8787 12.1508 55.8787 8.63604 52.364C5.12132 48.8492 5.12132 43.1508 8.63604 39.636C12.1508 36.1213 17.8492 36.1213 21.364 39.636Z"/>
</mask>
<path d="M21.364 39.636C24.8787 43.1508 24.8787 48.8492 21.364 52.364C17.8492 55.8787 12.1508 55.8787 8.63604 52.364C5.12132 48.8492 5.12132 43.1508 8.63604 39.636C12.1508 36.1213 17.8492 36.1213 21.364 39.636Z" fill="url(#paint3_radial_392_6158)"/>
<path d="M21.364 52.364L20.6569 51.6569L20.6568 51.6569L21.364 52.364ZM8.63604 52.364L9.34315 51.6569H9.34315L8.63604 52.364ZM8.63604 39.636L9.34315 40.3431L9.34315 40.3431L8.63604 39.636ZM20.6568 40.3431C23.781 43.4673 23.781 48.5327 20.6569 51.6569L22.0711 53.0711C25.9763 49.1658 25.9763 42.8342 22.0711 38.9289L20.6568 40.3431ZM20.6568 51.6569C17.5327 54.781 12.4673 54.781 9.34315 51.6569L7.92893 53.0711C11.8342 56.9763 18.1658 56.9763 22.0711 53.0711L20.6568 51.6569ZM9.34315 51.6569C6.21895 48.5327 6.21895 43.4673 9.34315 40.3431L7.92894 38.9289C4.02369 42.8342 4.02369 49.1658 7.92893 53.0711L9.34315 51.6569ZM9.34315 40.3431C12.4673 37.219 17.5327 37.219 20.6568 40.3431L22.0711 38.9289C18.1658 35.0237 11.8342 35.0237 7.92893 38.9289L9.34315 40.3431Z" fill="url(#paint4_radial_392_6158)" mask="url(#path-5-inside-2_392_6158)"/>
</g>
<g filter="url(#filter3_b_392_6158)">
<path d="M16.8446 44.2663C17.8331 45.2548 17.8331 46.8575 16.8446 47.846C15.856 48.8345 14.2533 48.8345 13.2648 47.846C12.2763 46.8575 12.2763 45.2548 13.2648 44.2663C14.2533 43.2778 15.856 43.2778 16.8446 44.2663Z" fill="white" fill-opacity="0.8"/>
</g>
<g filter="url(#filter4_b_392_6158)">
<mask id="path-8-inside-3_392_6158" fill="white">
<path d="M51.364 69.636C54.8787 73.1508 54.8787 78.8492 51.364 82.364C47.8492 85.8787 42.1508 85.8787 38.636 82.364C35.1213 78.8492 35.1213 73.1508 38.636 69.636C42.1508 66.1213 47.8492 66.1213 51.364 69.636Z"/>
</mask>
<path d="M51.364 69.636C54.8787 73.1508 54.8787 78.8492 51.364 82.364C47.8492 85.8787 42.1508 85.8787 38.636 82.364C35.1213 78.8492 35.1213 73.1508 38.636 69.636C42.1508 66.1213 47.8492 66.1213 51.364 69.636Z" fill="url(#paint5_radial_392_6158)"/>
<path d="M51.364 82.364L50.6569 81.6569L50.6568 81.6569L51.364 82.364ZM38.636 82.364L39.3431 81.6569H39.3431L38.636 82.364ZM38.636 69.636L39.3431 70.3431L39.3431 70.3431L38.636 69.636ZM50.6568 70.3431C53.781 73.4673 53.781 78.5327 50.6569 81.6569L52.0711 83.0711C55.9763 79.1658 55.9763 72.8342 52.0711 68.9289L50.6568 70.3431ZM50.6568 81.6569C47.5327 84.781 42.4673 84.781 39.3431 81.6569L37.9289 83.0711C41.8342 86.9763 48.1658 86.9763 52.0711 83.0711L50.6568 81.6569ZM39.3431 81.6569C36.219 78.5327 36.219 73.4673 39.3431 70.3431L37.9289 68.9289C34.0237 72.8342 34.0237 79.1658 37.9289 83.0711L39.3431 81.6569ZM39.3431 70.3431C42.4673 67.219 47.5327 67.219 50.6568 70.3431L52.0711 68.9289C48.1658 65.0237 41.8342 65.0237 37.9289 68.9289L39.3431 70.3431Z" fill="url(#paint6_radial_392_6158)" mask="url(#path-8-inside-3_392_6158)"/>
</g>
<g filter="url(#filter5_b_392_6158)">
<path d="M46.8446 74.2663C47.8331 75.2548 47.8331 76.8575 46.8446 77.846C45.856 78.8345 44.2533 78.8345 43.2648 77.846C42.2763 76.8575 42.2763 75.2548 43.2648 74.2663C44.2533 73.2778 45.856 73.2778 46.8446 74.2663Z" fill="white" fill-opacity="0.8"/>
</g>
<defs>
<filter id="filter0_b_392_6158" x="52.4086" y="-8.59141" width="45.1828" height="45.1828" filterUnits="userSpaceOnUse" color-interpolation-filters="sRGB">
<feFlood flood-opacity="0" result="BackgroundImageFix"/>
<feGaussianBlur in="BackgroundImage" stdDeviation="6.7957"/>
<feComposite in2="SourceAlpha" operator="in" result="effect1_backgroundBlur_392_6158"/>
<feBlend mode="normal" in="SourceGraphic" in2="effect1_backgroundBlur_392_6158" result="shape"/>
</filter>
<filter id="filter1_b_392_6158" x="70.0268" y="9.0283" width="10.0557" height="10.0557" filterUnits="userSpaceOnUse" color-interpolation-filters="sRGB">
<feFlood flood-opacity="0" result="BackgroundImageFix"/>
<feGaussianBlur in="BackgroundImage" stdDeviation="1.2483"/>
<feComposite in2="SourceAlpha" operator="in" result="effect1_backgroundBlur_392_6158"/>
<feBlend mode="normal" in="SourceGraphic" in2="effect1_backgroundBlur_392_6158" result="shape"/>
</filter>
<filter id="filter2_b_392_6158" x="-7.59141" y="23.4086" width="45.1828" height="45.1828" filterUnits="userSpaceOnUse" color-interpolation-filters="sRGB">
<feFlood flood-opacity="0" result="BackgroundImageFix"/>
<feGaussianBlur in="BackgroundImage" stdDeviation="6.7957"/>
<feComposite in2="SourceAlpha" operator="in" result="effect1_backgroundBlur_392_6158"/>
<feBlend mode="normal" in="SourceGraphic" in2="effect1_backgroundBlur_392_6158" result="shape"/>
</filter>
<filter id="filter3_b_392_6158" x="10.0268" y="41.0283" width="10.0557" height="10.0557" filterUnits="userSpaceOnUse" color-interpolation-filters="sRGB">
<feFlood flood-opacity="0" result="BackgroundImageFix"/>
<feGaussianBlur in="BackgroundImage" stdDeviation="1.2483"/>
<feComposite in2="SourceAlpha" operator="in" result="effect1_backgroundBlur_392_6158"/>
<feBlend mode="normal" in="SourceGraphic" in2="effect1_backgroundBlur_392_6158" result="shape"/>
</filter>
<filter id="filter4_b_392_6158" x="22.4086" y="53.4086" width="45.1828" height="45.1828" filterUnits="userSpaceOnUse" color-interpolation-filters="sRGB">
<feFlood flood-opacity="0" result="BackgroundImageFix"/>
<feGaussianBlur in="BackgroundImage" stdDeviation="6.7957"/>
<feComposite in2="SourceAlpha" operator="in" result="effect1_backgroundBlur_392_6158"/>
<feBlend mode="normal" in="SourceGraphic" in2="effect1_backgroundBlur_392_6158" result="shape"/>
</filter>
<filter id="filter5_b_392_6158" x="40.0268" y="71.0283" width="10.0557" height="10.0557" filterUnits="userSpaceOnUse" color-interpolation-filters="sRGB">
<feFlood flood-opacity="0" result="BackgroundImageFix"/>
<feGaussianBlur in="BackgroundImage" stdDeviation="1.2483"/>
<feComposite in2="SourceAlpha" operator="in" result="effect1_backgroundBlur_392_6158"/>
<feBlend mode="normal" in="SourceGraphic" in2="effect1_backgroundBlur_392_6158" result="shape"/>
</filter>
<linearGradient id="paint0_linear_392_6158" x1="45" y1="2.87537" x2="45" y2="87" gradientUnits="userSpaceOnUse">
<stop stop-color="#7A5CF1"/>
<stop offset="1" stop-color="#4419EF"/>
</linearGradient>
<radialGradient id="paint1_radial_392_6158" cx="0" cy="0" r="1" gradientUnits="userSpaceOnUse" gradientTransform="translate(68.688 8.50978) rotate(51.1744) scale(12.6574)">
<stop stop-color="white" stop-opacity="0.799873"/>
<stop offset="1" stop-color="#C0C5F3" stop-opacity="0.53"/>
</radialGradient>
<radialGradient id="paint2_radial_392_6158" cx="0" cy="0" r="1" gradientUnits="userSpaceOnUse" gradientTransform="translate(69.1066 5.95011) rotate(65.678) scale(11.9657 18.1008)">
<stop stop-color="white"/>
<stop offset="1" stop-color="white" stop-opacity="0.01"/>
</radialGradient>
<radialGradient id="paint3_radial_392_6158" cx="0" cy="0" r="1" gradientUnits="userSpaceOnUse" gradientTransform="translate(8.68798 40.5098) rotate(51.1744) scale(12.6574)">
<stop stop-color="white" stop-opacity="0.799873"/>
<stop offset="1" stop-color="#C0C5F3" stop-opacity="0.53"/>
</radialGradient>
<radialGradient id="paint4_radial_392_6158" cx="0" cy="0" r="1" gradientUnits="userSpaceOnUse" gradientTransform="translate(9.10657 37.9501) rotate(65.678) scale(11.9657 18.1008)">
<stop stop-color="white"/>
<stop offset="1" stop-color="white" stop-opacity="0.01"/>
</radialGradient>
<radialGradient id="paint5_radial_392_6158" cx="0" cy="0" r="1" gradientUnits="userSpaceOnUse" gradientTransform="translate(38.688 70.5098) rotate(51.1744) scale(12.6574)">
<stop stop-color="white" stop-opacity="0.799873"/>
<stop offset="1" stop-color="#C0C5F3" stop-opacity="0.53"/>
</radialGradient>
<radialGradient id="paint6_radial_392_6158" cx="0" cy="0" r="1" gradientUnits="userSpaceOnUse" gradientTransform="translate(39.1066 67.9501) rotate(65.678) scale(11.9657 18.1008)">
<stop stop-color="white"/>
<stop offset="1" stop-color="white" stop-opacity="0.01"/>
</radialGradient>
</defs>
</svg>
