<svg width="91" height="90" viewBox="0 0 91 90" fill="none" xmlns="http://www.w3.org/2000/svg">
<path d="M9.4375 54.9033C9.4375 51.0373 12.5715 47.9033 16.4375 47.9033L73.5665 47.9033C77.4325 47.9033 80.5665 51.0373 80.5665 54.9033V83.0001C80.5665 86.8661 77.4325 90.0001 73.5665 90.0001H16.4375C12.5715 90.0001 9.4375 86.8661 9.4375 83.0001L9.4375 54.9033Z" fill="url(#paint0_linear_392_6154)"/>
<path d="M3.63281 35.6772C3.63281 29.6021 8.55768 24.6772 14.6328 24.6772L75.3748 24.6772C81.4499 24.6772 86.3748 29.6021 86.3748 35.6772V71.7418C86.3748 77.8169 81.4499 82.7418 75.3748 82.7418H14.6328C8.55768 82.7418 3.63281 77.8169 3.63281 71.7418L3.63281 35.6772Z" fill="url(#paint1_linear_392_6154)"/>
<g filter="url(#filter0_b_392_6154)">
<path d="M0.00390625 12C0.00390625 5.37258 5.37649 0 12.0039 0H78.0039C84.6313 0 90.0039 5.37258 90.0039 12V62.7581C90.0039 69.3855 84.6313 74.7581 78.0039 74.7581H12.0039C5.37649 74.7581 0.00390625 69.3855 0.00390625 62.7581V12Z" fill="url(#paint2_radial_392_6154)"/>
<path d="M12.0039 0.5H78.0039C84.3552 0.5 89.5039 5.64873 89.5039 12V62.7581C89.5039 69.1093 84.3552 74.2581 78.0039 74.2581H12.0039C5.65263 74.2581 0.503906 69.1093 0.503906 62.7581V12C0.503906 5.64872 5.65263 0.5 12.0039 0.5Z" stroke="url(#paint3_radial_392_6154)"/>
</g>
<path d="M34.6227 52.6514L34.6226 52.6513L34.6191 52.6648C34.0942 54.6949 32.2637 56.1127 30.1682 56.1127C28.224 56.1127 26.4897 54.889 25.8373 53.0562L22.9285 44.8846C22.7805 44.469 22.3872 44.1912 21.9459 44.1912H19.4658C17.813 44.1912 16.4727 42.8506 16.4727 41.1964C16.4727 39.5421 17.813 38.2015 19.4658 38.2015H22.1758C24.7201 38.2015 26.9569 39.8878 27.6581 42.3352L28.9758 46.9347C29.2944 48.0466 30.8779 48.0161 31.156 46.8971L38.599 19.6047C38.9872 18.181 40.2803 17.1934 41.7559 17.1934H71.6178C73.0787 17.1934 74.263 18.3776 74.263 19.8385C74.263 21.2994 73.0787 22.4837 71.6178 22.4837H45.2818C44.1207 22.4837 43.0997 23.2519 42.778 24.3676L34.6227 52.6514Z" fill="url(#paint4_radial_392_6154)" stroke="url(#paint5_radial_392_6154)"/>
<mask id="path-6-inside-1_392_6154" fill="white">
<path fill-rule="evenodd" clip-rule="evenodd" d="M72.3601 56.1889C73.6356 54.9134 73.6356 52.8454 72.3601 51.5699L64.6875 43.8974L71.8984 36.6866C73.1739 35.4111 73.1739 33.3431 71.8984 32.0676C70.6229 30.7921 68.5549 30.7921 67.2794 32.0676L60.0685 39.2784L52.8576 32.0675C51.5821 30.792 49.5141 30.792 48.2386 32.0675C46.9631 33.343 46.9631 35.411 48.2386 36.6865L55.4495 43.8974L47.7769 51.57C46.5014 52.8455 46.5014 54.9135 47.7769 56.189C49.0524 57.4645 51.1204 57.4645 52.3959 56.189L60.0685 48.5164L67.741 56.1889C69.0165 57.4644 71.0845 57.4644 72.3601 56.1889Z"/>
</mask>
<path fill-rule="evenodd" clip-rule="evenodd" d="M72.3601 56.1889C73.6356 54.9134 73.6356 52.8454 72.3601 51.5699L64.6875 43.8974L71.8984 36.6866C73.1739 35.4111 73.1739 33.3431 71.8984 32.0676C70.6229 30.7921 68.5549 30.7921 67.2794 32.0676L60.0685 39.2784L52.8576 32.0675C51.5821 30.792 49.5141 30.792 48.2386 32.0675C46.9631 33.343 46.9631 35.411 48.2386 36.6865L55.4495 43.8974L47.7769 51.57C46.5014 52.8455 46.5014 54.9135 47.7769 56.189C49.0524 57.4645 51.1204 57.4645 52.3959 56.189L60.0685 48.5164L67.741 56.1889C69.0165 57.4644 71.0845 57.4644 72.3601 56.1889Z" fill="url(#paint6_radial_392_6154)"/>
<path d="M72.3601 51.5699L71.6529 52.277L71.6529 52.277L72.3601 51.5699ZM72.3601 56.1889L73.0672 56.896L73.0672 56.896L72.3601 56.1889ZM64.6875 43.8974L63.9804 43.1903L63.2733 43.8974L63.9804 44.6045L64.6875 43.8974ZM71.8984 36.6866L71.1913 35.9795L71.1913 35.9795L71.8984 36.6866ZM71.8984 32.0676L71.1913 32.7747L71.1913 32.7747L71.8984 32.0676ZM67.2794 32.0676L66.5723 31.3605L66.5723 31.3605L67.2794 32.0676ZM60.0685 39.2784L59.3614 39.9855L60.0685 40.6926L60.7757 39.9855L60.0685 39.2784ZM52.8576 32.0675L53.5647 31.3604L52.8576 32.0675ZM48.2386 32.0675L48.9457 32.7746L48.9457 32.7746L48.2386 32.0675ZM48.2386 36.6865L47.5315 37.3936L47.5315 37.3936L48.2386 36.6865ZM55.4495 43.8974L56.1566 44.6045L56.8638 43.8974L56.1566 43.1903L55.4495 43.8974ZM47.7769 51.57L48.484 52.2771L48.484 52.2771L47.7769 51.57ZM47.7769 56.189L47.0698 56.8961L47.7769 56.189ZM52.3959 56.189L51.6888 55.4819L51.6888 55.4819L52.3959 56.189ZM60.0685 48.5164L60.7757 47.8093L60.0685 47.1022L59.3614 47.8093L60.0685 48.5164ZM67.741 56.1889L67.0339 56.896L67.0339 56.896L67.741 56.1889ZM71.6529 52.277C72.5379 53.162 72.5379 54.5968 71.6529 55.4818L73.0672 56.896C74.7332 55.23 74.7332 52.5289 73.0672 50.8628L71.6529 52.277ZM63.9804 44.6045L71.6529 52.277L73.0672 50.8628L65.3947 43.1903L63.9804 44.6045ZM71.1913 35.9795L63.9804 43.1903L65.3947 44.6045L72.6055 37.3937L71.1913 35.9795ZM71.1913 32.7747C72.0763 33.6597 72.0763 35.0945 71.1913 35.9795L72.6055 37.3937C74.2715 35.7276 74.2715 33.0265 72.6055 31.3605L71.1913 32.7747ZM67.9865 32.7747C68.8715 31.8897 70.3063 31.8897 71.1913 32.7747L72.6055 31.3605C70.9395 29.6944 68.2383 29.6944 66.5723 31.3605L67.9865 32.7747ZM60.7757 39.9855L67.9865 32.7747L66.5723 31.3605L59.3614 38.5713L60.7757 39.9855ZM52.1505 32.7746L59.3614 39.9855L60.7757 38.5713L53.5647 31.3604L52.1505 32.7746ZM48.9457 32.7746C49.8307 31.8896 51.2655 31.8896 52.1505 32.7746L53.5647 31.3604C51.8987 29.6943 49.1975 29.6943 47.5315 31.3604L48.9457 32.7746ZM48.9457 35.9794C48.0607 35.0944 48.0607 33.6596 48.9457 32.7746L47.5315 31.3604C45.8655 33.0264 45.8654 35.7275 47.5315 37.3936L48.9457 35.9794ZM56.1566 43.1903L48.9457 35.9794L47.5315 37.3936L54.7424 44.6045L56.1566 43.1903ZM48.484 52.2771L56.1566 44.6045L54.7424 43.1903L47.0698 50.8629L48.484 52.2771ZM48.484 55.4819C47.5991 54.5969 47.5991 53.1621 48.484 52.2771L47.0698 50.8629C45.4038 52.5289 45.4038 55.2301 47.0698 56.8961L48.484 55.4819ZM51.6888 55.4819C50.8039 56.3669 49.369 56.3669 48.484 55.4819L47.0698 56.8961C48.7359 58.5622 51.437 58.5622 53.103 56.8961L51.6888 55.4819ZM59.3614 47.8093L51.6888 55.4819L53.103 56.8961L60.7757 49.2235L59.3614 47.8093ZM68.4482 55.4818L60.7757 47.8093L59.3614 49.2235L67.0339 56.896L68.4482 55.4818ZM71.6529 55.4818C70.768 56.3668 69.3331 56.3668 68.4482 55.4818L67.0339 56.896C68.7 58.5621 71.4011 58.5621 73.0672 56.896L71.6529 55.4818Z" fill="url(#paint7_radial_392_6154)" mask="url(#path-6-inside-1_392_6154)"/>
<defs>
<filter id="filter0_b_392_6154" x="-13.5875" y="-13.5914" width="117.183" height="101.941" filterUnits="userSpaceOnUse" color-interpolation-filters="sRGB">
<feFlood flood-opacity="0" result="BackgroundImageFix"/>
<feGaussianBlur in="BackgroundImage" stdDeviation="6.7957"/>
<feComposite in2="SourceAlpha" operator="in" result="effect1_backgroundBlur_392_6154"/>
<feBlend mode="normal" in="SourceGraphic" in2="effect1_backgroundBlur_392_6154" result="shape"/>
</filter>
<linearGradient id="paint0_linear_392_6154" x1="49.3042" y1="94.8809" x2="52.1004" y2="79.0521" gradientUnits="userSpaceOnUse">
<stop stop-color="#7A5CF1"/>
<stop offset="1" stop-color="#4419EF"/>
</linearGradient>
<linearGradient id="paint1_linear_392_6154" x1="45.0038" y1="96.6268" x2="36.1085" y2="50.5978" gradientUnits="userSpaceOnUse">
<stop stop-color="#7A5CF1"/>
<stop offset="1" stop-color="#4419EF"/>
</linearGradient>
<radialGradient id="paint2_radial_392_6154" cx="0" cy="0" r="1" gradientUnits="userSpaceOnUse" gradientTransform="translate(53.6736 -21.2615) rotate(103.084) scale(60.6345 80.1188)">
<stop stop-color="white" stop-opacity="0.24"/>
<stop offset="1" stop-color="#C0C5F3" stop-opacity="0.53"/>
</radialGradient>
<radialGradient id="paint3_radial_392_6154" cx="0" cy="0" r="1" gradientUnits="userSpaceOnUse" gradientTransform="translate(86.9702 -8.39978) rotate(125.258) scale(88.466 144.465)">
<stop stop-color="white"/>
<stop offset="1" stop-color="white" stop-opacity="0.01"/>
</radialGradient>
<radialGradient id="paint4_radial_392_6154" cx="0" cy="0" r="1" gradientUnits="userSpaceOnUse" gradientTransform="translate(67.1699 57.9014) rotate(-138.769) scale(158.35 171.575)">
<stop stop-color="white"/>
<stop offset="1" stop-color="#C0C5F3" stop-opacity="0.53"/>
</radialGradient>
<radialGradient id="paint5_radial_392_6154" cx="0" cy="0" r="1" gradientUnits="userSpaceOnUse" gradientTransform="translate(67.9208 12.4527) rotate(129.113) scale(47.003 79.7059)">
<stop stop-color="white"/>
<stop offset="1" stop-color="white" stop-opacity="0.01"/>
</radialGradient>
<radialGradient id="paint6_radial_392_6154" cx="0" cy="0" r="1" gradientUnits="userSpaceOnUse" gradientTransform="translate(72.0428 59.5366) rotate(-129.986) scale(93.963 101.13)">
<stop stop-color="white"/>
<stop offset="1" stop-color="#C0C5F3" stop-opacity="0.53"/>
</radialGradient>
<radialGradient id="paint7_radial_392_6154" cx="0" cy="0" r="1" gradientUnits="userSpaceOnUse" gradientTransform="translate(72.4235 28.1856) rotate(120.863) scale(29.3074 44.7098)">
<stop stop-color="white"/>
<stop offset="1" stop-color="white" stop-opacity="0.01"/>
</radialGradient>
</defs>
</svg>
