<svg width="90" height="90" viewBox="0 0 90 90" fill="none" xmlns="http://www.w3.org/2000/svg">
<g filter="url(#filter0_b_392_6146)">
<path fill-rule="evenodd" clip-rule="evenodd" d="M75.026 8.14845L62.3216 2.99231C59.8506 1.98942 57.0833 2.01005 54.6318 3.04237L6.28319 23.4776C2.22687 25.192 0.326713 29.8739 2.04088 33.9303L11.2006 55.6061C12.8726 59.5627 28.5302 73.5816 33.064 72.6782C33.2843 72.6343 33.4705 72.5039 33.637 72.3531L69.7497 39.6407C69.9162 39.4899 70.1078 39.3699 70.3116 39.2755C72.6183 38.2074 74.4406 36.3006 75.3991 33.939L80.5556 21.2337C82.6427 16.0911 80.1682 10.2355 75.026 8.14845ZM71.3914 27.8448C73.9427 25.2935 73.9427 21.1586 71.3914 18.6073C68.8401 16.056 64.7228 16.056 62.1538 18.6073C59.6025 21.1586 59.6025 25.2935 62.1538 27.8448C64.7052 30.3961 68.8401 30.3961 71.3914 27.8448Z" fill="url(#paint0_linear_392_6146)"/>
</g>
<g filter="url(#filter1_b_392_6146)">
<mask id="path-2-inside-1_392_6146" fill="white">
<path fill-rule="evenodd" clip-rule="evenodd" d="M75.5859 2.17725H58.8851C55.6367 2.17725 52.5229 3.46813 50.2288 5.75625L5.02042 50.9679C1.22757 54.761 1.22757 60.9157 5.02042 64.7088L25.2877 84.9776C29.0806 88.7707 35.2348 88.7707 39.0277 84.9776L84.2361 39.7659C86.5301 37.4717 87.8209 34.3577 87.8209 31.1151V14.4131C87.8209 7.65281 82.3458 2.17725 75.5859 2.17725ZM71.3913 27.8444C73.9426 25.2931 73.9426 21.1582 71.3913 18.6069C68.84 16.0555 64.7227 16.0555 62.1538 18.6069C59.6025 21.1582 59.6025 25.2931 62.1538 27.8444C64.7051 30.3957 68.84 30.3957 71.3913 27.8444Z"/>
</mask>
<path fill-rule="evenodd" clip-rule="evenodd" d="M75.5859 2.17725H58.8851C55.6367 2.17725 52.5229 3.46813 50.2288 5.75625L5.02042 50.9679C1.22757 54.761 1.22757 60.9157 5.02042 64.7088L25.2877 84.9776C29.0806 88.7707 35.2348 88.7707 39.0277 84.9776L84.2361 39.7659C86.5301 37.4717 87.8209 34.3577 87.8209 31.1151V14.4131C87.8209 7.65281 82.3458 2.17725 75.5859 2.17725ZM71.3913 27.8444C73.9426 25.2931 73.9426 21.1582 71.3913 18.6069C68.84 16.0555 64.7227 16.0555 62.1538 18.6069C59.6025 21.1582 59.6025 25.2931 62.1538 27.8444C64.7051 30.3957 68.84 30.3957 71.3913 27.8444Z" fill="url(#paint1_radial_392_6146)"/>
<path d="M50.2288 5.75625L49.5226 5.04822L49.5217 5.04916L50.2288 5.75625ZM5.02042 50.9679L4.31329 50.2608L4.31329 50.2608L5.02042 50.9679ZM5.02042 64.7088L5.72756 64.0017L5.72756 64.0017L5.02042 64.7088ZM25.2877 84.9776L24.5806 85.6846L24.5806 85.6846L25.2877 84.9776ZM39.0277 84.9776L38.3205 84.2705L38.3205 84.2705L39.0277 84.9776ZM84.2361 39.7659L83.5289 39.0588L83.5289 39.0588L84.2361 39.7659ZM71.3913 18.6069L70.6842 19.314L70.6842 19.314L71.3913 18.6069ZM71.3913 27.8444L70.6842 27.1373L70.6842 27.1373L71.3913 27.8444ZM62.1538 18.6069L61.4491 17.8973L61.4467 17.8998L62.1538 18.6069ZM62.1538 27.8444L61.4467 28.5515L61.4467 28.5515L62.1538 27.8444ZM58.8851 3.17725H75.5859V1.17725H58.8851V3.17725ZM50.935 6.46427C53.0419 4.36287 55.9019 3.17725 58.8851 3.17725V1.17725C55.3716 1.17725 52.0039 2.57339 49.5226 5.04822L50.935 6.46427ZM5.72756 51.675L50.936 6.46333L49.5217 5.04916L4.31329 50.2608L5.72756 51.675ZM5.72756 64.0017C2.32519 60.5991 2.32519 55.0776 5.72756 51.675L4.31329 50.2608C0.129944 54.4445 0.129944 61.2322 4.31329 65.4159L5.72756 64.0017ZM25.9949 84.2705L5.72756 64.0017L4.31329 65.4159L24.5806 85.6846L25.9949 84.2705ZM38.3205 84.2705C34.9182 87.6731 29.3972 87.6731 25.9949 84.2705L24.5806 85.6846C28.764 89.8683 35.5514 89.8683 39.7348 85.6846L38.3205 84.2705ZM83.5289 39.0588L38.3205 84.2705L39.7348 85.6846L84.9432 40.473L83.5289 39.0588ZM86.8209 31.1151C86.8209 34.0922 85.6357 36.9519 83.5289 39.0588L84.9432 40.473C87.4246 37.9914 88.8209 34.6231 88.8209 31.1151H86.8209ZM86.8209 14.4131V31.1151H88.8209V14.4131H86.8209ZM75.5859 3.17725C81.7934 3.17725 86.8209 8.20503 86.8209 14.4131H88.8209C88.8209 7.10059 82.8981 1.17725 75.5859 1.17725V3.17725ZM70.6842 19.314C72.845 21.4748 72.845 24.9765 70.6842 27.1373L72.0984 28.5515C75.0403 25.6097 75.0403 20.8416 72.0984 17.8998L70.6842 19.314ZM62.8585 19.3164C65.0388 17.151 68.5248 17.1545 70.6842 19.314L72.0984 17.8998C69.1553 14.9566 64.4066 14.9601 61.4491 17.8973L62.8585 19.3164ZM62.8609 27.1373C60.7001 24.9765 60.7001 21.4748 62.8609 19.314L61.4467 17.8998C58.5048 20.8416 58.5048 25.6097 61.4467 28.5515L62.8609 27.1373ZM70.6842 27.1373C68.5234 29.2981 65.0217 29.2981 62.8609 27.1373L61.4467 28.5515C64.3885 31.4934 69.1566 31.4934 72.0984 28.5515L70.6842 27.1373Z" fill="url(#paint2_radial_392_6146)" mask="url(#path-2-inside-1_392_6146)"/>
</g>
<g opacity="0.9" filter="url(#filter2_b_392_6146)">
<path d="M25.9877 59.2734C25.5943 59.6634 25.5929 60.2989 25.9846 60.6907L26.7833 61.4894C27.1726 61.8787 27.8034 61.8801 28.1944 61.4925L29.2303 60.4656C29.6015 60.0976 30.1927 60.0814 30.6051 60.4025C35.1858 63.9694 39.8953 63.8991 43.2284 60.5859C46.9235 56.8698 45.5561 52.1204 43.1031 48.1434L42.9885 47.9493C42.7553 47.5542 42.8208 47.051 43.1475 46.7289L47.7522 42.1882C48.1925 41.754 48.927 41.818 49.1883 42.3785C49.8213 43.7366 49.8361 45.1063 49.1993 46.3211C48.9628 46.7724 48.9811 47.3408 49.3414 47.7011L51.7144 50.0742C52.1102 50.4699 52.7598 50.4666 53.0987 50.0213C55.4939 46.8747 55.2786 42.6084 52.4944 38.7819C52.1901 38.3637 52.2152 37.7811 52.5825 37.417L53.6633 36.3453C54.0567 35.9553 54.0581 35.3198 53.6664 34.9281L52.8677 34.1294C52.4783 33.7401 51.8475 33.7387 51.4565 34.1264L50.3601 35.2134C49.9968 35.5736 49.4218 35.5978 49.0069 35.2985C44.8451 32.2953 40.0027 32.101 36.7462 35.3773C33.6773 38.4462 34.0948 42.3919 36.7044 46.8177L37.005 47.3247C37.2393 47.7198 37.1742 48.2238 36.8472 48.5465L31.873 53.4553C31.438 53.8847 30.7153 53.8287 30.4299 53.2883C29.5738 51.6674 29.4658 49.9637 30.3939 48.4246C30.6648 47.9755 30.6552 47.3864 30.2843 47.0155L27.8664 44.5977C27.4656 44.1968 26.8074 44.2064 26.4599 44.6543C23.5924 48.35 23.9316 52.7307 27.0945 56.879C27.4111 57.2942 27.3891 57.8841 27.0184 58.2517L25.9877 59.2734ZM34.2692 57.1048C33.718 56.8213 33.663 56.0862 34.1045 55.6511L38.0901 51.7232C38.5626 51.2575 39.3547 51.3713 39.627 51.9763C40.4844 53.8811 40.6141 55.4375 39.3871 56.682C38.0659 57.9854 36.1722 58.0837 34.2692 57.1048ZM41.9096 43.548C41.4294 44.0208 40.6221 43.8941 40.3867 43.2627C39.8185 41.7388 39.73 40.2103 40.9111 39.062C42.0405 37.9499 43.6545 37.7418 45.3497 38.5399C45.9137 38.8054 45.9722 39.5478 45.528 39.9852L41.9096 43.548Z" fill="url(#paint3_radial_392_6146)"/>
<path d="M42.6725 48.3976L42.6725 48.3976L42.6775 48.4059C43.8843 50.3623 44.7961 52.4666 44.9732 54.5057C45.1481 56.5209 44.6088 58.4879 42.8749 60.2323C41.296 61.8013 39.4112 62.5875 37.3878 62.5743C35.3563 62.561 33.1376 61.7409 30.9123 60.008C30.3153 59.5432 29.4402 59.5535 28.8783 60.1105L27.8424 61.1374C27.6469 61.3312 27.3315 61.3305 27.1369 61.1358L26.3382 60.3371C26.1423 60.1413 26.143 59.8235 26.3397 59.6285L27.3704 58.6068C27.9315 58.0505 27.9506 57.177 27.4922 56.5758C25.9556 54.5606 25.1295 52.5213 25.015 50.5677C24.9008 48.6214 25.4899 46.7201 26.8549 44.9608C26.9993 44.7748 27.3027 44.741 27.5129 44.9512L29.9307 47.3691C30.1036 47.5419 30.146 47.8676 29.9658 48.1664C28.9282 49.8871 29.0686 51.7814 29.9877 53.5218C30.4556 54.4076 31.5915 54.4357 32.2242 53.8112L37.1984 48.9023C37.6889 48.4183 37.7865 47.6624 37.4351 47.0697L37.1351 46.5638C37.1349 46.5634 37.1347 46.5631 37.1345 46.5628C35.8529 44.3889 35.1398 42.3815 35.0957 40.5764C35.0521 38.7924 35.6603 37.1702 37.0997 35.7308L37.1008 35.7298C40.1322 32.68 44.6859 32.797 48.7143 35.7039C49.3121 36.1353 50.162 36.1139 50.7121 35.5685L51.8085 34.4814C52.004 34.2876 52.3194 34.2883 52.5141 34.4829L53.3128 35.2816C53.5087 35.4775 53.508 35.7953 53.3113 35.9903L52.2304 37.0619C51.6741 37.6135 51.6521 38.4742 52.0901 39.0761C54.7768 42.7685 54.9316 46.7878 52.7009 49.7185C52.5693 49.8913 52.2786 49.9312 52.068 49.7206L49.6949 47.3476C49.5279 47.1805 49.4794 46.8638 49.6422 46.5532C50.3608 45.1823 50.3313 43.6471 49.6415 42.1673C49.2048 41.2305 48.0358 41.2063 47.4011 41.8322L42.7964 46.3728C42.3064 46.8561 42.2081 47.6108 42.5579 48.2035L42.6725 48.3976ZM39.7382 57.0379L39.7382 57.0379L39.7431 57.033C40.4473 56.3189 40.7726 55.4959 40.7886 54.5855C40.8043 53.6968 40.5251 52.7533 40.083 51.7711C39.6541 50.8184 38.4358 50.6805 37.7391 51.367L33.7535 55.295C33.112 55.9272 33.1356 57.084 34.0405 57.5494C36.0759 58.5964 38.2202 58.5355 39.7382 57.0379ZM40.5613 38.7047C39.1659 40.0624 39.3257 41.8483 39.9182 43.4374C40.2984 44.4572 41.5602 44.5937 42.2604 43.9043L45.8788 40.3415C46.5192 39.7109 46.5044 38.5309 45.5626 38.0875C43.7155 37.2179 41.8672 37.4198 40.5613 38.7047Z" stroke="url(#paint4_radial_392_6146)"/>
</g>
<defs>
<filter id="filter0_b_392_6146" x="-15.5898" y="-14.7461" width="113.887" height="104.466" filterUnits="userSpaceOnUse" color-interpolation-filters="sRGB">
<feFlood flood-opacity="0" result="BackgroundImageFix"/>
<feGaussianBlur in="BackgroundImage" stdDeviation="8.5"/>
<feComposite in2="SourceAlpha" operator="in" result="effect1_backgroundBlur_392_6146"/>
<feBlend mode="normal" in="SourceGraphic" in2="effect1_backgroundBlur_392_6146" result="shape"/>
</filter>
<filter id="filter1_b_392_6146" x="-11.4156" y="-11.4142" width="112.827" height="112.828" filterUnits="userSpaceOnUse" color-interpolation-filters="sRGB">
<feFlood flood-opacity="0" result="BackgroundImageFix"/>
<feGaussianBlur in="BackgroundImage" stdDeviation="6.7957"/>
<feComposite in2="SourceAlpha" operator="in" result="effect1_backgroundBlur_392_6146"/>
<feBlend mode="normal" in="SourceGraphic" in2="effect1_backgroundBlur_392_6146" result="shape"/>
</filter>
<filter id="filter2_b_392_6146" x="10.9086" y="19.3915" width="57.4328" height="57.2741" filterUnits="userSpaceOnUse" color-interpolation-filters="sRGB">
<feFlood flood-opacity="0" result="BackgroundImageFix"/>
<feGaussianBlur in="BackgroundImage" stdDeviation="6.7957"/>
<feComposite in2="SourceAlpha" operator="in" result="effect1_backgroundBlur_392_6146"/>
<feBlend mode="normal" in="SourceGraphic" in2="effect1_backgroundBlur_392_6146" result="shape"/>
</filter>
<linearGradient id="paint0_linear_392_6146" x1="23.9498" y1="32.2987" x2="13.5449" y2="20.0745" gradientUnits="userSpaceOnUse">
<stop stop-color="#512CE3"/>
<stop offset="1" stop-color="#623EF1"/>
</linearGradient>
<radialGradient id="paint1_radial_392_6146" cx="0" cy="0" r="1" gradientUnits="userSpaceOnUse" gradientTransform="translate(53.2486 -22.1806) rotate(100.926) scale(68.9108 76.855)">
<stop stop-color="white" stop-opacity="0.24"/>
<stop offset="1" stop-color="#C0C5F3" stop-opacity="0.53"/>
</radialGradient>
<radialGradient id="paint2_radial_392_6146" cx="0" cy="0" r="1" gradientUnits="userSpaceOnUse" gradientTransform="translate(84.934 -7.4458) rotate(120.422) scale(95.9716 145.178)">
<stop stop-color="white"/>
<stop offset="1" stop-color="white" stop-opacity="0.01"/>
</radialGradient>
<radialGradient id="paint3_radial_392_6146" cx="0" cy="0" r="1" gradientUnits="userSpaceOnUse" gradientTransform="translate(31.3111 70.9253) rotate(-71.8412) scale(117.122 103.144)">
<stop stop-color="white"/>
<stop offset="1" stop-color="#C0C5F3" stop-opacity="0.53"/>
</radialGradient>
<radialGradient id="paint4_radial_392_6146" cx="0" cy="0" r="1" gradientUnits="userSpaceOnUse" gradientTransform="translate(63.7256 38.9824) rotate(154.828) scale(38.8185 42.9128)">
<stop stop-color="white"/>
<stop offset="1" stop-color="white" stop-opacity="0.01"/>
</radialGradient>
</defs>
</svg>
